<?xml version="1.0" encoding="utf-8"?>
<!-- Generator: Adobe Illustrator 17.0.0, SVG Export Plug-In . SVG Version: 6.00 Build 0)  -->
<!DOCTYPE svg PUBLIC "-//W3C//DTD SVG 1.1//EN" "http://www.w3.org/Graphics/SVG/1.1/DTD/svg11.dtd">
<svg version="1.1" id="Camada_1" xmlns="http://www.w3.org/2000/svg" xmlns:xlink="http://www.w3.org/1999/xlink" x="0px" y="0px"
	 width="668px" height="436px" viewBox="0 0 668 436" enable-background="new 0 0 668 436" xml:space="preserve">
<g>
	<path fill="#D2E3FC" d="M242.397,273.579C46.576,267.135-49.88,340.596,46.576,350.501
		c129.953,13.345,92.464,77.494,213.394,77.455c86.731-0.028,120.904-34.694,171.46-32.948
		c241.944,8.356,218.004-61.463,158.666-79.915C437.13,267.525,242.397,273.579,242.397,273.579z"/>
	<ellipse fill="#BDD6F9" cx="359.857" cy="311.91" rx="187.279" ry="12.945"/>
	<g>
		<ellipse fill="#BDD6F9" cx="135.27" cy="310.442" rx="24.009" ry="4.022"/>
		<path fill="#D8CCFF" d="M147.385,68.686c-0.594,3.589-0.129,7.177,0.562,10.765c0.371,1.794,0.86,3.589,1.417,5.383
			c0.593,1.794,1.153,3.588,2.181,5.383c1.96,3.589,5.499,7.177,7.688,10.765c2.217,3.589,2.493,7.177,1.827,10.765
			c-0.337,1.794-1.012,3.589-1.846,5.383c-0.861,1.794-1.908,3.589-2.88,5.383c-0.984,1.794-1.906,3.589-2.512,5.383
			c-0.622,1.794-0.929,3.589-0.898,5.383c0.013,0.897,0.122,1.794,0.302,2.691c0.212,0.897,0.389,1.794,0.899,2.691
			c0.954,1.794,2.851,3.589,5.407,5.383c5.24,3.589,12.479,7.177,14.961,10.765c1.359,1.794,1.53,3.589,1.306,5.383
			c-0.218,1.794-0.896,3.589-2.069,5.383c-0.578,0.897-1.25,1.794-2.073,2.691c-0.414,0.449-0.782,0.897-1.234,1.346l-1.388,1.346
			c-1.802,1.794-3.827,3.589-5.69,5.383c-1.891,1.794-3.421,3.589-4.675,5.383c-1.211,1.794-1.977,3.589-2.369,5.383
			c-0.816,3.589,0.436,7.177,2.875,10.765c2.319,3.589,4.996,7.177,5.266,10.765c0.216,1.794-0.186,3.589-0.751,5.383
			c-0.553,1.794-1.233,3.589-2.063,5.383c-1.66,3.589-3.923,7.177-6.984,10.765c-3.072,3.589-6.792,7.177-12.285,10.765
			c-4.439,2.9-10.005,2.719-14.18,0c-5.493-3.589-9.213-7.177-12.285-10.765c-3.061-3.588-5.324-7.177-6.984-10.765
			c-0.83-1.794-1.51-3.588-2.063-5.383c-0.565-1.794-0.966-3.588-0.751-5.383c0.27-3.588,2.947-7.177,5.266-10.765
			c2.439-3.589,3.691-7.177,2.875-10.765c-0.392-1.794-1.158-3.588-2.369-5.383c-1.254-1.794-2.784-3.589-4.675-5.383
			c-1.864-1.794-3.889-3.588-5.69-5.383l-1.388-1.346c-0.452-0.449-0.82-0.897-1.234-1.346c-0.822-0.897-1.495-1.794-2.073-2.691
			c-1.172-1.794-1.851-3.588-2.069-5.383c-0.224-1.794-0.053-3.589,1.306-5.383c2.482-3.588,9.72-7.177,14.961-10.765
			c2.557-1.794,4.454-3.588,5.407-5.383c0.51-0.897,0.688-1.794,0.899-2.691c0.18-0.897,0.289-1.794,0.302-2.691
			c0.031-1.794-0.276-3.588-0.898-5.383c-0.607-1.794-1.529-3.588-2.513-5.383c-0.972-1.794-2.019-3.588-2.88-5.383
			c-0.834-1.794-1.509-3.589-1.846-5.383c-0.667-3.588-0.39-7.177,1.827-10.765c2.19-3.588,5.728-7.177,7.688-10.765
			c1.028-1.794,1.588-3.588,2.181-5.383c0.556-1.794,1.046-3.589,1.417-5.383c0.691-3.589,1.156-7.177,0.562-10.765
			c-1.107-6.691,3.42-13.012,10.111-14.119c6.691-1.107,13.012,3.42,14.119,10.111C147.608,66.024,147.591,67.408,147.385,68.686z"
			/>
		<path fill="#EBF7FF" d="M136.862,166.628l14.164-14.164c0.622-0.622,0.622-1.629,0-2.251c-0.622-0.622-1.629-0.622-2.251,0
			l-11.913,11.913v-48.058l10.831-10.831c0.622-0.622,0.622-1.629,0-2.251c-0.622-0.622-1.629-0.622-2.251,0l-8.58,8.58V91.907
			c0-0.88-0.713-1.592-1.592-1.592s-1.592,0.712-1.592,1.592v24.174l-11.455-11.455c-0.622-0.622-1.629-0.622-2.251,0
			c-0.622,0.622-0.622,1.629,0,2.251l13.706,13.705v47.905L117.392,152.2c-0.622-0.622-1.629-0.622-2.251,0
			c-0.622,0.622-0.622,1.629,0,2.251l18.538,18.538v46.36l-13.561-13.561c-0.622-0.622-1.629-0.622-2.251,0
			c-0.622,0.622-0.622,1.629,0,2.251l15.812,15.811v85c0,0.88,0.713,1.592,1.592,1.592s1.592-0.712,1.592-1.592V218.28
			l12.798-12.797c0.622-0.622,0.622-1.629,0-2.251c-0.622-0.622-1.629-0.622-2.251,0l-10.547,10.547V166.628z"/>
		<path fill="#CCDFFF" d="M94.659,189.186c0,47.031-29.787,88.019-29.787,88.019s-23.678-26.549-28.802-71.002l5.383,1.538
			l-5.643-3.932c-0.466-4.69-0.726-9.564-0.726-14.623c0-8.189,0.542-15.5,1.538-21.956l13.908,7.55l-12.749-13.843
			c4.69-21.436,15.056-31.618,27.09-31.618c7.506,0,14.352,3.954,19.584,12.121l-10.724,8.85l12.944-4.928
			c4.149,8.243,6.943,19.746,7.745,34.694l-8.709,5.199l8.85-1.906C94.627,185.243,94.659,187.182,94.659,189.186z"/>
		<ellipse fill="#BDD6F9" cx="64.872" cy="325.7" rx="19.355" ry="3.243"/>
		<path fill="#EBF7FF" d="M66.155,209.76l11.419-11.419c0.501-0.501,0.501-1.313,0-1.814c-0.501-0.501-1.313-0.501-1.814,0
			l-9.604,9.604v-38.743l8.732-8.732c0.501-0.501,0.501-1.313,0-1.815c-0.501-0.501-1.313-0.501-1.814,0l-6.917,6.917V149.52
			c0-0.709-0.575-1.283-1.283-1.283c-0.709,0-1.283,0.574-1.283,1.283v19.489l-9.235-9.234c-0.501-0.501-1.313-0.501-1.815,0
			c-0.501,0.501-0.501,1.313,0,1.814l11.049,11.049v38.62l-13.13-13.13c-0.501-0.501-1.313-0.501-1.815,0
			c-0.501,0.501-0.501,1.313,0,1.814l14.945,14.945v37.375L52.656,241.33c-0.501-0.501-1.313-0.501-1.815,0
			c-0.501,0.501-0.501,1.313,0,1.814l12.747,12.747v68.525c0,0.709,0.575,1.283,1.283,1.283c0.709,0,1.283-0.574,1.283-1.283V251.4
			l10.318-10.317c0.501-0.501,0.501-1.313,0-1.814c-0.501-0.501-1.313-0.501-1.814,0l-8.503,8.503V209.76z"/>
	</g>
	<path fill="#CCDFFF" d="M510.162,300.233c0.788-4.443,1.966-8.78,3.434-13.05c0.737-2.132,1.526-4.26,2.383-6.373
		c0.88-2.096,1.836-4.171,2.838-6.245c1.976-4.174,4.365-8.171,7.014-12.132c2.633-3.982,5.727-7.738,9.205-11.365
		c0.866-0.91,1.758-1.807,2.703-2.674c0.918-0.887,1.876-1.754,2.884-2.586c0.99-0.84,2.033-1.641,3.11-2.421
		c1.051-0.805,2.168-1.554,3.307-2.291c1.116-0.762,2.308-1.449,3.512-2.135c1.184-0.711,2.452-1.325,3.72-1.951
		c2.477-1.232,5.539-2.373,7.295-3.067c4.071-1.633,7.981-2.959,11.644-4.219c3.68-1.199,7.113-2.328,10.297-3.45
		c3.177-1.147,6.063-2.394,8.645-3.86c2.594-1.455,4.857-3.137,7.02-4.986c2.167-1.844,4.306-3.835,6.525-6.092
		c2.203-2.258,4.449-4.854,6.649-7.72l1.6-2.227c0.533-0.754,1.004-1.569,1.517-2.36c1.023-1.576,2.007-3.266,3.006-4.956
		c1.905-3.439,3.731-7.074,5.506-10.849c3.512-7.568,6.636-15.659,10.049-24.013l0.026-0.063c0.159-0.389,0.603-0.575,0.992-0.416
		c0.236,0.096,0.398,0.302,0.453,0.532l1.506,6.502c0.486,2.183,0.883,4.383,1.326,6.602c0.829,4.439,1.582,8.963,2.112,13.591
		c1.075,9.252,1.297,18.954-0.197,29.314c-0.837,5.173-2.045,10.451-3.475,16.261c-1.537,5.712-3.562,11.901-6.995,17.443
		c-1.705,2.763-3.776,5.297-6.067,7.555c-2.325,2.225-4.876,4.163-7.567,5.744c-5.37,3.208-11.178,5.048-16.794,5.691
		c-1.379,0.167-2.831,0.263-4.182,0.298c-1.377-0.025-2.784-0.012-4.107-0.097c-2.681-0.096-5.313-0.464-7.823-0.779
		c-5.035-0.685-9.696-1.459-14.021-1.598c-2.43-0.032-3.613-0.207-5.267-0.171c-0.794,0.02-1.611,0.012-2.431,0.118
		c-0.823,0.074-1.666,0.142-2.508,0.304c-0.848,0.129-1.709,0.271-2.569,0.488c-0.867,0.183-1.742,0.395-2.613,0.666
		c-0.875,0.248-1.744,0.545-2.613,0.88c-0.88,0.305-1.752,0.659-2.625,1.039c-7.038,2.957-13.928,7.551-20.203,13.002
		c-3.15,2.726-6.176,5.666-9.005,8.808c-2.846,3.123-5.531,6.453-7.894,9.951c-0.229,0.339-0.689,0.428-1.028,0.199
		c-0.25-0.169-0.364-0.463-0.315-0.742L510.162,300.233z"/>
	<path fill="#FFFFFF" d="M630.702,209.515c1.847-0.805,3.692-1.617,5.534-2.434c1.118-0.496,0.502-2.31-0.628-1.809
		c-1.433,0.635-2.867,1.268-4.303,1.896c-0.796,0.348-1.841,0.981-2.869,1.349c2.38-6.711,4.012-13.801,4.865-20.786
		c0.086-0.699-0.421-1.347-1.112-1.421c-0.699-0.086-1.336,0.412-1.421,1.112c-0.885,7.238-2.614,14.593-5.166,21.479
		c-0.166,0.173-0.256,0.416-0.26,0.677c-1.236,3.251-2.657,6.39-4.263,9.358c-0.139-0.181-0.28-0.36-0.414-0.547
		c-0.62-0.863-1.184-1.771-1.716-2.69c-1.218-2.106-2.411-4.41-2.868-6.821c-0.226-1.195-2.139-1.071-1.91,0.142
		c0.552,2.917,1.932,5.645,3.441,8.178c0.472,0.792,1.361,2.623,2.403,3.628c-6.788,11.647-16.545,20.277-29.169,21.772
		c-1.108,0.131-2.195,0.278-3.282,0.425c2.511-4.025,4.67-8.218,6.447-12.631c0.458-1.137-1.252-2-1.712-0.857
		c-1.955,4.854-4.353,9.452-7.198,13.84c-12.962,1.931-24.333,5.03-34.098,9.285c2.82-3.722,5.01-8.034,8.236-11.451
		c0.848-0.898-0.59-2.163-1.435-1.268c-4.13,4.375-6.582,10.287-10.825,14.456c-0.057,0.055-0.078,0.115-0.117,0.174
		c-20.241,9.987-32.857,25.435-37.65,46.217c-0.158,0.686,0.269,1.372,0.957,1.529c0.013,0.004,0.027,0.007,0.04,0.009
		c0.672,0.133,1.334-0.292,1.489-0.966c3.776-16.372,12.654-29.313,26.507-38.771c5.665-1.653,11.364-1.557,16.994,0.216
		c1.173,0.37,1.535-1.511,0.371-1.878c-4.25-1.339-8.572-1.714-12.872-1.191c7.161-4.197,15.467-7.589,24.919-10.16
		c8.61,1.154,15.175,5.286,23.073,8.533c1.134,0.466,1.997-1.244,0.857-1.712c-6.908-2.84-12.574-6.231-19.499-7.938
		c5.95-1.409,12.311-2.523,19.097-3.327c5.653-0.67,10.754-2.674,15.309-5.665c6.356,1.2,12.69,1.284,19.093,0.207
		c1.203-0.203,1.077-2.115-0.142-1.91c-5.612,0.944-11.172,0.996-16.747,0.145c8.388-6.353,14.735-16.183,18.978-27.231
		C628.695,210.505,629.71,209.947,630.702,209.515z"/>
	<path fill="#D8CCFF" d="M505.362,310.178c-2.252-6.208-3.933-12.568-5.197-19.055c-0.627-3.242-1.183-6.517-1.644-9.823
		c-0.418-3.301-0.725-6.63-0.973-9.993c-0.55-6.737-0.448-13.552,0.012-20.511c0.424-6.975,1.596-14,3.351-21.143
		c0.431-1.787,0.907-3.577,1.469-5.368c0.515-1.797,1.094-3.597,1.763-5.388c0.64-1.789,1.376-3.567,2.171-5.344
		c0.743-1.789,1.611-3.556,2.516-5.324c0.857-1.783,1.865-3.527,2.889-5.277c0.98-1.768,2.138-3.474,3.288-5.195
		c2.237-3.374,5.284-7.062,7.002-9.227c3.965-5.05,7.951-9.592,11.671-13.87c3.787-4.213,7.313-8.157,10.527-11.909
		c3.187-3.778,5.934-7.471,8.133-11.219c2.223-3.742,3.86-7.531,5.249-11.457c1.398-3.924,2.651-8.012,3.813-12.498
		c1.14-4.474,2.087-9.409,2.778-14.652l0.398-3.994c0.124-1.346,0.125-2.724,0.196-4.101c0.144-2.746,0.154-5.609,0.183-8.483
		c-0.102-5.754-0.448-11.698-0.96-17.782c-1.087-12.163-3.048-24.706-4.836-37.792l-0.014-0.099
		c-0.083-0.609,0.343-1.171,0.953-1.254c0.37-0.051,0.726,0.091,0.964,0.343l6.668,7.14c2.214,2.411,4.327,4.909,6.512,7.398
		c4.299,5.02,8.564,10.204,12.624,15.681c8.133,10.941,15.516,23.077,21.204,37.302c2.724,7.17,5.056,14.744,7.496,23.156
		c2.233,8.365,4.194,17.692,3.899,27.229c-0.14,4.75-0.91,9.477-2.161,14.017c-1.318,4.522-3.134,8.846-5.389,12.819
		c-4.46,7.997-10.475,14.58-17.123,19.505c-1.626,1.221-3.396,2.404-5.083,3.439c-1.764,0.976-3.537,2.022-5.278,2.882
		c-3.469,1.84-7.074,3.3-10.485,4.738c-6.883,2.816-13.358,5.246-18.943,8.235c-3.104,1.738-4.731,2.382-6.802,3.637
		c-0.992,0.607-2.033,1.194-2.995,1.929c-0.989,0.697-2.007,1.399-2.956,2.221c-0.98,0.784-1.969,1.594-2.899,2.499
		c-0.965,0.867-1.919,1.776-2.825,2.757c-0.927,0.955-1.813,1.967-2.669,3.028c-0.892,1.03-1.739,2.118-2.566,3.238
		c-6.757,8.899-12.128,19.765-16.094,31.267c-1.998,5.761-3.682,11.703-4.968,17.755c-1.323,6.042-2.289,12.227-2.723,18.391
		c-0.042,0.597-0.56,1.046-1.157,1.005c-0.44-0.031-0.8-0.321-0.942-0.71L505.362,310.178z"/>
	<path fill="#FFFFFF" d="M591.766,106.969c1.753-2.372,3.496-4.751,5.233-7.135c1.054-1.446-1.054-3.295-2.119-1.833
		c-1.351,1.854-2.706,3.705-4.066,5.552c-0.754,1.024-1.615,2.59-2.649,3.81c-1.894-10.249-5.015-20.429-9.045-29.909
		c-0.403-0.95-1.52-1.4-2.449-0.988c-0.95,0.403-1.393,1.5-0.988,2.449c4.176,9.822,7.366,20.411,9.17,31.008
		c-0.084,0.341-0.02,0.714,0.166,1.049c0.812,5.026,1.308,10.045,1.445,14.982c-0.309-0.127-0.619-0.252-0.924-0.39
		c-1.418-0.64-2.796-1.378-4.144-2.155c-3.085-1.778-6.283-3.825-8.627-6.548c-1.162-1.35-3.495,0.208-2.317,1.577
		c2.834,3.293,6.581,5.741,10.347,7.848c1.178,0.659,3.645,2.329,5.701,2.841c-0.08,19.731-6.133,37.811-21.04,48.945
		c-1.309,0.977-2.579,1.959-3.849,2.941c0.238-6.939-0.095-13.834-1.071-20.729c-0.252-1.776-3.051-1.619-2.798,0.167
		c1.074,7.584,1.399,15.166,1.005,22.811c-15.018,11.933-27.163,24.184-36.427,36.724c0.85-6.782,0.471-13.85,2.059-20.543
		c0.418-1.76-2.331-2.31-2.746-0.558c-2.033,8.567-0.815,17.856-3.143,26.246c-0.031,0.112-0.015,0.204-0.021,0.305
		c-18.348,27.472-23.034,56.287-13.9,86.138c0.302,0.986,1.345,1.542,2.332,1.238c0.02-0.005,0.039-0.011,0.058-0.018
		c0.95-0.324,1.478-1.346,1.181-2.315c-7.194-23.516-5.412-46.417,5.225-68.544c5.971-6.241,13.265-10.29,21.7-12.163
		c1.758-0.39,0.84-3.039-0.904-2.652c-6.367,1.414-12.119,4.101-17.188,7.91c6.005-10.561,14.052-20.939,24.151-31.115
		c11.758-4.838,23.103-4.405,35.492-6.069c1.779-0.239,1.621-3.038-0.167-2.798c-10.835,1.455-20.498,1.303-30.526,4.209
		c6.511-6.141,13.758-12.207,21.773-18.193c6.675-4.986,11.675-11.259,15.259-18.384c8.935-3.131,17.026-7.66,24.353-13.711
		c1.377-1.137-0.183-3.468-1.577-2.317c-6.422,5.304-13.433,9.439-21.122,12.441c5.983-14.192,6.835-31.296,4.128-48.407
		C589.946,109.694,590.824,108.243,591.766,106.969z"/>
	<path fill="#F0FAFF" d="M523.096,67.195v242.538c0,2.193-1.771,3.964-3.948,3.964H195.087c-2.193,0-3.964-1.771-3.964-3.964V67.195
		c0-2.177,1.771-3.948,3.964-3.948h324.061C521.325,63.247,523.096,65.018,523.096,67.195z"/>
	<path fill="#83A7E1" d="M523.096,67.195v22.777c0,2.177-1.771,3.948-3.948,3.948H195.087c-2.193,0-3.964-1.771-3.964-3.948V67.195
		c0-2.177,1.771-3.948,3.964-3.948h324.061C521.325,63.247,523.096,65.018,523.096,67.195z"/>
	<circle fill="#FFFFFF" cx="218.354" cy="78.584" r="6.723"/>
	<circle fill="#386DC1" cx="241.045" cy="78.584" r="6.723"/>
	<circle fill="#775DD4" cx="263.737" cy="78.584" r="6.723"/>
	<rect x="211.63" y="124.877" fill="#B4A0FA" width="92.956" height="82.923"/>
	<rect x="330.36" y="124.877" fill="#A0BEFA" width="47.905" height="41.461"/>
	<rect x="330.36" y="187.07" fill="#A0BEFA" width="47.905" height="41.461"/>
	<path fill="#D3DCE6" d="M423.228,137.484h-20.591c-3.481,0-6.303-2.822-6.303-6.303l0,0c0-3.481,2.822-6.303,6.303-6.303h20.591
		c3.481,0,6.303,2.822,6.303,6.303l0,0C429.531,134.662,426.709,137.484,423.228,137.484z"/>
	<path fill="#D3DCE6" d="M502.222,137.484h-20.591c-3.481,0-6.303-2.822-6.303-6.303l0,0c0-3.481,2.822-6.303,6.303-6.303h20.591
		c3.481,0,6.303,2.822,6.303,6.303l0,0C508.526,134.662,505.704,137.484,502.222,137.484z"/>
	<path fill="#D3DCE6" d="M456.425,158.215h-53.788c-3.481,0-6.303-2.822-6.303-6.303l0,0c0-3.481,2.822-6.303,6.303-6.303h53.788
		c3.481,0,6.303,2.822,6.303,6.303l0,0C462.728,155.393,459.906,158.215,456.425,158.215z"/>
	<path fill="#D3DCE6" d="M509.243,158.215h-53.788c-3.481,0-6.303-2.822-6.303-6.303l0,0c0-3.481,2.822-6.303,6.303-6.303h53.788
		c3.481,0,6.303,2.822,6.303,6.303l0,0C515.546,155.393,512.724,158.215,509.243,158.215z"/>
	<path fill="#D3DCE6" d="M423.228,199.676h-20.591c-3.481,0-6.303-2.822-6.303-6.303l0,0c0-3.481,2.822-6.303,6.303-6.303h20.591
		c3.481,0,6.303,2.822,6.303,6.303l0,0C429.531,196.854,426.709,199.676,423.228,199.676z"/>
	<path fill="#D3DCE6" d="M456.425,220.407h-53.788c-3.481,0-6.303-2.822-6.303-6.303l0,0c0-3.481,2.822-6.303,6.303-6.303h53.788
		c3.481,0,6.303,2.822,6.303,6.303l0,0C462.728,217.585,459.906,220.407,456.425,220.407z"/>
	<rect x="330.36" y="249.261" fill="#A0BEFA" width="47.905" height="41.461"/>
	<path fill="#D3DCE6" d="M423.228,261.868h-20.591c-3.481,0-6.303-2.822-6.303-6.303l0,0c0-3.481,2.822-6.303,6.303-6.303h20.591
		c3.481,0,6.303,2.822,6.303,6.303l0,0C429.531,259.046,426.709,261.868,423.228,261.868z"/>
	<path fill="#D3DCE6" d="M456.425,282.599h-53.788c-3.481,0-6.303-2.822-6.303-6.303l0,0c0-3.481,2.822-6.303,6.303-6.303h53.788
		c3.481,0,6.303,2.822,6.303,6.303l0,0C462.728,279.777,459.906,282.599,456.425,282.599z"/>
	<circle fill="#DDF1FF" cx="252.193" cy="305.964" r="2.317"/>
	<g>
		<path opacity="0.1" d="M494.97,252.506h-74.407c-6.919,0-12.527-5.609-12.527-12.528V64.27h86.935V252.506z"/>
		<path fill="#775DD4" d="M512.694,238.851c0,4.939-3.997,8.935-8.935,8.935h-81.491c4.923,0,8.935-3.997,8.935-8.935H512.694z"/>
		<path fill="#775DD4" d="M413.333,64.27h-17.871c0-4.939,3.997-8.935,8.935-8.935C409.32,55.335,413.333,59.331,413.333,64.27z"/>
		<path fill="#9B87E1" d="M503.827,64.753c0-4.935-4-8.935-8.935-8.935c-0.011,0-0.021,0.002-0.031,0.002h-90.4
			c4.923,0,8.935,3.997,8.935,8.935v174.581c0,4.939,3.997,8.935,8.935,8.935c4.923,0,8.935-3.997,8.935-8.935h72.555V64.859
			C503.822,64.823,503.827,64.789,503.827,64.753z"/>
		<path fill="#B4A0FA" d="M452.784,79.606h-23.524c-2.084,0-3.773-1.689-3.773-3.773l0,0c0-2.084,1.689-3.773,3.773-3.773h23.524
			c2.084,0,3.773,1.689,3.773,3.773l0,0C456.557,77.917,454.867,79.606,452.784,79.606z"/>
		<path fill="#B4A0FA" d="M485.987,98.716h-56.727c-2.084,0-3.773-1.689-3.773-3.773l0,0c0-2.084,1.689-3.773,3.773-3.773h56.727
			c2.084,0,3.773,1.689,3.773,3.773l0,0C489.76,97.027,488.07,98.716,485.987,98.716z"/>
		<path fill="#B4A0FA" d="M475.427,111.201h-46.167c-2.084,0-3.773-1.689-3.773-3.773l0,0c0-2.084,1.689-3.773,3.773-3.773h46.167
			c2.084,0,3.773,1.689,3.773,3.773l0,0C479.2,109.512,477.51,111.201,475.427,111.201z"/>
		<path fill="#B4A0FA" d="M482.737,123.686h-53.478c-2.084,0-3.773-1.689-3.773-3.773l0,0c0-2.084,1.689-3.773,3.773-3.773h53.478
			c2.084,0,3.773,1.689,3.773,3.773l0,0C486.51,121.997,484.821,123.686,482.737,123.686z"/>
		<path fill="#B4A0FA" d="M452.807,142.22h-23.524c-2.084,0-3.773-1.689-3.773-3.773l0,0c0-2.084,1.689-3.773,3.773-3.773h23.524
			c2.084,0,3.773,1.689,3.773,3.773l0,0C456.58,140.531,454.891,142.22,452.807,142.22z"/>
		<path fill="#B4A0FA" d="M486.01,161.33h-56.727c-2.084,0-3.773-1.689-3.773-3.773l0,0c0-2.084,1.689-3.773,3.773-3.773h56.727
			c2.084,0,3.773,1.689,3.773,3.773l0,0C489.783,159.641,488.094,161.33,486.01,161.33z"/>
		<path fill="#B4A0FA" d="M475.45,173.815h-46.167c-2.084,0-3.773-1.689-3.773-3.773l0,0c0-2.084,1.689-3.773,3.773-3.773h46.167
			c2.084,0,3.773,1.689,3.773,3.773l0,0C479.223,172.126,477.534,173.815,475.45,173.815z"/>
		<path fill="#B4A0FA" d="M482.761,186.3h-53.478c-2.084,0-3.773-1.689-3.773-3.773l0,0c0-2.084,1.689-3.773,3.773-3.773h53.478
			c2.084,0,3.773,1.689,3.773,3.773l0,0C486.534,184.611,484.845,186.3,482.761,186.3z"/>
		<g>
			<path fill="#B4A0FA" d="M430.163,221.038l-0.061-17.963c0-0.702,0.45-0.89,1.006-0.89l0,0c0.555,0,1.006,0.188,1.006,0.89
				l-0.1,18.08c0,0.702-0.351,0.725-0.906,0.725l0,0C430.553,221.879,430.163,221.74,430.163,221.038z"/>
			<path fill="#B4A0FA" d="M452.138,221.038l-0.061-17.963c0-0.702,0.45-0.89,1.006-0.89l0,0c0.555,0,1.006,0.188,1.006,0.89
				l-0.1,18.08c0,0.702-0.35,0.725-0.906,0.725l0,0C452.527,221.879,452.138,221.74,452.138,221.038z"/>
			<path fill="#B4A0FA" d="M441.551,220.236l-0.061-17.199c0-0.672,0.45-0.852,1.006-0.852l0,0c0.555,0,1.006,0.18,1.006,0.852
				l-0.1,17.31c0,0.672-0.35,0.694-0.906,0.694l0,0C441.941,221.041,441.551,220.908,441.551,220.236z"/>
			<path fill="#B4A0FA" d="M463.484,220.564l-0.061-17.285c0-0.676,0.45-0.857,1.006-0.857l0,0c0.555,0,1.006,0.181,1.006,0.857
				l-0.1,17.397c0,0.676-0.351,0.697-0.906,0.697l0,0C463.873,221.373,463.484,221.24,463.484,220.564z"/>
			<path fill="#B4A0FA" d="M474.92,220.254l-0.061-16.809c0-0.657,0.45-0.833,1.006-0.833l0,0c0.555,0,1.006,0.176,1.006,0.833
				l-0.1,16.918c0,0.657-0.351,0.678-0.906,0.678l0,0C475.31,221.041,474.92,220.911,474.92,220.254z"/>
			<path fill="#B4A0FA" d="M435.731,218.615l-0.061-15.655c0-0.612,0.45-0.776,1.006-0.776l0,0c0.555,0,1.006,0.164,1.006,0.776
				l-0.1,15.756c0,0.612-0.351,0.631-0.906,0.631l0,0C436.12,219.348,435.731,219.227,435.731,218.615z"/>
			<path fill="#B4A0FA" d="M446.875,217.24l-0.061-14.345c0-0.561,0.45-0.711,1.006-0.711l0,0c0.555,0,1.006,0.15,1.006,0.711
				l-0.1,14.438c0,0.561-0.35,0.579-0.906,0.579l0,0C447.265,217.912,446.875,217.801,446.875,217.24z"/>
			<path fill="#B4A0FA" d="M487.263,221.038l-0.061-17.963c0-0.702,0.45-0.89,1.006-0.89l0,0c0.555,0,1.006,0.188,1.006,0.89
				l-0.1,18.08c0,0.702-0.35,0.725-0.906,0.725l0,0C487.652,221.879,487.263,221.74,487.263,221.038z"/>
			<path fill="#B4A0FA" d="M457.968,219.519l-0.061-16.289c0-0.637,0.45-0.807,1.006-0.807l0,0c0.555,0,1.006,0.17,1.006,0.807
				l-0.1,16.395c0,0.637-0.351,0.657-0.906,0.657l0,0C458.357,220.281,457.968,220.155,457.968,219.519z"/>
			<path fill="#B4A0FA" d="M469.187,217.981l-0.061-14.644c0-0.572,0.45-0.726,1.006-0.726l0,0c0.555,0,1.006,0.153,1.006,0.726
				l-0.1,14.739c0,0.572-0.35,0.591-0.906,0.591l0,0C469.577,218.667,469.187,218.554,469.187,217.981z"/>
			<path fill="#B4A0FA" d="M480.708,219.042l-0.061-15.655c0-0.612,0.45-0.776,1.006-0.776l0,0c0.555,0,1.006,0.164,1.006,0.776
				l-0.1,15.756c0,0.612-0.351,0.631-0.906,0.631l0,0C481.098,219.775,480.708,219.654,480.708,219.042z"/>
		</g>
	</g>
	<path fill="#FF982E" d="M549.5,305.452c0.234,0.059,0.492,0.094,0.738,0.117h0.293l-0.141-0.012l-0.551-0.07L549.5,305.452z"/>
	<g>
		<ellipse fill="#BDD6F9" cx="207.533" cy="354.464" rx="96.071" ry="12.945"/>
		<path opacity="0.1" d="M282.06,230.972l4.905-62.356l-1.523-1.724c-1.472-1.679-4.043-1.841-5.723-0.355l-50.26,44.228
			c-1.68,1.486-1.841,4.043-0.356,5.736l27.619,31.361c1.471,1.693,4.041,1.854,5.722,0.369L282.06,230.972z"/>
		<g>
			<path fill="#386DC1" d="M216.34,344.79c-0.387,1.898-1.254,3.643-2.519,5.061c-1.253,1.406-2.905,2.495-4.721,3.069
				c-0.445,0.141-0.914,0.258-1.371,0.352l-0.691,0.094l-0.34,0.035l-0.176,0.012h-0.059l-0.914,0.023l-7.369,0.188l-14.737,0.351
				l-29.451,0.726l1.722-7.533l26.78-4.756l14.585-2.062l3.386-0.48c-8.048-18.217-16.506-36.773-14.948-46.683l22.75-9.501
				l7.896,56.032C216.609,341.346,216.679,343.126,216.34,344.79z"/>
			<path fill="#386DC1" d="M266.768,341.421l-8.964,1.992l-12.725-40.061c-11.645,2.707-21.129,2.925-33.743,2.099
				c-6.989-15.97-20.846-19.521-6.418-20.384c0.492-0.082,0.984-0.129,1.476-0.164l0.375-0.023l0.269-0.012l0.223,0.012l0.879,0.023
				l1.535,0.07l2.94,0.164l5.764,0.387l11.457,0.808l11.445,0.832l2.858,0.211l1.429,0.105l0.715,0.059
				c0.41,0.023,0.972,0.059,1.453,0.129c4.006,0.527,7.65,2.8,9.852,6.033c1.113,1.605,1.874,3.444,2.237,5.318l0.445,2.858
				l0.867,5.67l1.722,11.316L266.768,341.421z"/>
			<path fill="#F79F9F" d="M255.142,225.054c0,0-22.653,27.587-30.048,31.934c-1.762,1.036-4.018,0.984-5.963,0.293
				c-0.984-0.328-1.898-0.867-2.683-1.558l-1.113-1.066l-3.046-2.929l-4.756-4.557c1.781,0.328,4.803-9.911,5.693-12.792
				l9.765,10.361l26.859-24.394L255.142,225.054z"/>
			<path fill="#D2C7FF" d="M230.304,237.284c-0.11,3.014-3.913,13.12-5.693,12.792c-0.023,0-0.035-0.012-0.059-0.012
				c-0.738-0.223-5.443-4.348-6.24-5.227c-0.422,4.827-3.31,15.132-4.552,17.767c-3.597,7.591,4.911,15.282,6.001,19.183
				c1.089,3.901-3.046,8.4-15.346,7.228c-12.301-1.172-16.986,7.415-20.103,3.901c-12.3-30.845,0.293-63.845,8.587-72.046
				c5.67-5.6,17.373-5.073,29.627,5.225C222.525,226.096,230.384,235.075,230.304,237.284z"/>
			<path fill="#FFB3B3" d="M201.77,217.321c0.705,2.06,12.185,5.327,16.115,5.313c0.569-0.014-0.745-2.453,0.379-5.164
				c0-0.014,0.014-0.041,0.014-0.054c3.551,2.86,7.197,0.772,9.46-5.719c2.643-7.576,2.426-15.437,2.426-15.437
				c-0.041-0.61-0.136-1.179-0.285-1.681c-2.399-8.661-18.405-3.172-21.726-2.928c-1.45,0.108-2.196,3.144-2.562,6.709
				c0.176,3.524,1.301,5.841,0.894,8.904c-0.135,1.139-0.379,2.074-0.542,2.86c1.057,0.393,3.307,1.274,5.638,2.507
				C210.106,215.898,201.77,217.321,201.77,217.321z"/>
			<path fill="#0D2F6B" d="M218.406,188.906c2.734,1.487,8.351-1.789,10.854-0.648c2.516,1.141,2.731,5.965-0.547,7.682
				c-3.345,1.752-7.638,4.473-7.775,7.984c-0.034,0.882-0.178,1.556-0.379,2.076c-0.012,0.138-0.046,0.284-0.133,0.444
				c-1.927,3.568-0.474,7.11,0.382,7.91c0.757,0.708,5.173-2.87,5.174-1.251c0.001,2.447-3.453,5.731-5.564,5.569
				c-2.111-0.162-3.242-14.368-3.242-14.368s0.016,0.001,0.023,0.002c-0.126-0.766-0.159-1.658-0.038-2.679
				c0.292-2.477-4.137-0.298-2.944,2.191c0.674,1.426,0.856,7.132-4.059,8.818c-0.869,0.298-1.893,0.467-3.099,0.467
				c-3.086,0-1.005-1.454-2.542-2.982C196.53,202.178,208.836,183.704,218.406,188.906z"/>
			<path fill="#3F1CBC" d="M258.748,352.688c0,1.617,1.312,2.917,2.917,2.917h20.899c0.773-0.961,1.172-1.956,0-3.128
				c-5.764-1.722-11.024-3.667-14.304-6.455c-0.176,0.07-0.351,0.129-0.527,0.187c-2.952,0.996-5.822,1.09-8.564-0.012
				c-0.141-0.059-0.281-0.117-0.422-0.176C258.291,348.389,258.303,350.649,258.748,352.688z"/>
			<path fill="#3F1CBC" d="M155.716,347.168c-0.234,0.07-0.469,0.141-0.691,0.234c-0.551,0.199-1.078,0.445-1.582,0.726
				c-1.968,1.078-3.526,2.753-4.791,4.873c-0.059,0.105-0.129,0.211-0.188,0.328c-4.299,0-9.559,1.921-15.065,4.346
				c-1.663-0.141-2.003-1.148-2.027-2.39l15.92-13.519c1.23-1.043,3.069-0.902,4.112,0.328
				C153.068,343.361,154.532,345.071,155.716,347.168z"/>
			<path fill="#FFB3B3" d="M155.716,347.168l-1.668,7.296c-1.51-0.285-3.603-0.781-5.584-1.133c0.059-0.117,0.129-0.223,0.188-0.328
				c1.265-2.12,2.823-3.796,4.791-4.873c0.504-0.281,1.031-0.527,1.582-0.726C155.247,347.309,155.481,347.238,155.716,347.168z"/>
			<path fill="#FFB3B3" d="M258.303,343.304c0,0,0.434,1.546,0.867,2.894c2.741,1.101,5.611,1.007,8.564,0.012
				c-0.808-1.863-1.417-4.686-1.417-4.686L258.303,343.304z"/>
			<path fill="#A0BEFA" d="M317.378,204.802l-50.638,43.794c-1.695,1.466-4.259,1.281-5.725-0.415l-27.341-31.614
				c-1.466-1.695-1.281-4.258,0.415-5.725l50.638-43.794c1.696-1.466,4.259-1.281,5.725,0.415l27.341,31.614
				C319.259,200.773,319.074,203.336,317.378,204.802z"/>
			<path fill="#386DC1" d="M299.445,179.226l-55.427,47.936c-0.373,0.322-0.937,0.282-1.259-0.091l-5.998-6.935
				c-0.323-0.373-0.282-0.936,0.091-1.259l55.427-47.936c0.373-0.322,0.936-0.282,1.259,0.091l5.998,6.935
				C299.858,178.34,299.818,178.904,299.445,179.226z"/>
			<path fill="#F0FAFF" d="M308.49,205.037l-4.988,4.314c-1.75,1.513-4.394,1.321-5.907-0.428l-1.686-1.95
				c-1.513-1.749-1.321-4.394,0.428-5.907l4.988-4.314c1.75-1.513,4.394-1.321,5.907,0.428l1.686,1.95
				C310.431,200.879,310.239,203.524,308.49,205.037z"/>
			<path fill="#B3B3B3" d="M272.877,228.792c2.69-1.406,7.956-3.478,7.876-6.55c-0.068-2.616-2.91-10.278-4.295-8.005
				c-1.572,2.579-5.024,6.083-4.943,4.735c0.147-2.464-0.955-2.951-2.012-1.245c-1.352,2.182-0.697,5.139-1.916,6.357
				C266.368,225.302,272.877,228.792,272.877,228.792z"/>
			<path fill="#FFB3B3" d="M272.219,227.959c0,0-22.653,27.587-30.048,31.934c-1.762,1.036-4.018,0.984-5.963,0.293
				c-0.984-0.328-1.898-0.867-2.683-1.558l-1.113-1.066l-3.046-2.929l-4.756-4.557c1.781,0.328,4.803-9.911,5.693-12.792
				l9.765,10.361l26.859-24.394L272.219,227.959z"/>
			<path fill="#FFB3B3" d="M266.005,224.086c0.094,0.691,5.412,4.897,5.541,4.897c0.047-0.059,0.609-0.609,0.609-0.609
				c2.835-1.488,8.388-3.667,8.306-6.912c-0.07-2.765-3.069-10.848-4.534-8.446c-1.652,2.718-5.295,6.42-5.213,4.99
				c0.152-2.601-1.007-3.116-2.12-1.312c-1.429,2.308-0.738,5.424-2.027,6.713C266.568,223.407,265.923,223.395,266.005,224.086z"/>
		</g>
	</g>
	<g>
		<ellipse fill="#BDD6F9" cx="531.89" cy="359.36" rx="54.12" ry="12.945"/>
		<path fill="#FFB3B3" d="M520.041,139.779c-2.046-0.309-7.367,0.736-9.693,6.786c0,0-7.186,12.741-11.936,25.207
			c3.491,0.072,6.232,0.567,8.126,1.057l7.127-23.455C520.065,147.721,523.565,140.312,520.041,139.779z"/>
		<path fill="#0D2F6B" d="M549.828,207.529c-8.1-5.333-17.689-22.23-14.743-26.634c2.946-4.393-9.895-7.171-13.94-12.525
			c-1.764-2.344-2.207-3.316-1.415-9.124c0.401-2.957-3.612-2.957-3.401-8.364c0.032-0.781,0.211-1.711,0.813-2.798
			c0.116-0.222,0.253-0.454,0.412-0.687c0.475-0.697,1.109-1.468,1.975-2.292c2.577-2.482,18.999-3.221,18.999-3.221
			c0.011,0,0.011,0.01,0.021,0.01c0.222,0.19,0.433,0.38,0.644,0.549c0.253,0.222,0.507,0.433,0.75,0.634
			c10.339,8.607,15.735,11.194,13.845,18.069c-2.154,7.825,0.179,6.97,5.016,12.609c4.837,5.65,6.928,8.649,7.181,13.623
			C566.926,205.712,557.928,212.851,549.828,207.529z"/>
		<path fill="#FFB3B3" d="M558.456,351.165c-0.779-4.488-12.078-44.328-16.585-60.175c-5.862-2.242-14.515-7.07-23.945-10.762
			l8.404,14.817l24.701,56.985c0,5.143,13.454,9.23,15.693,8.839C568.964,360.469,565.226,354.724,558.456,351.165z"/>
		<path fill="#386DC1" d="M564.001,213.601c0,0-2.777-10.74-6.368-20.361c-5.034-12.474-9.655-19.908-16.609-22.329
			c-7.476-2.603-17.33,0.424-23.828,4.334c-0.084,0.053-8.839,4.858-10.392,6.4v-0.01l-2.169,1.45l1.905-10.258
			c-1.901-0.486-4.636-0.982-8.132-1.056c-3.517,9.251-5.703,18.344-2.619,21.977c1.933,2.27,12.715-0.306,12.715-0.306
			c0.18,0,6.669-4.314,6.848-4.314c-2.482,11.648-6.887,22.818-15.796,37.534c-12.171,20.104-20.021,54.272-16.26,52.099
			c23.762-13.729,61.558,19.749,65.857,12.409c6.305-10.772-9.552-55.148-5.793-69.532c7.519,1.552,14.906,2.429,17.135,1.679
			C563.758,222.229,565.595,218.85,564.001,213.601z M552.978,212.913l-7.572-0.968c0.634-2.703,1.83-11.439,2.337-14.036
			L552.978,212.913z"/>
		<path fill="#FFB3B3" d="M509.381,348.155c-0.567-21.905,1.287-51.533,1.552-70.366c-6.159-1.853-12.433-2.876-18.306-2.114
			c0.943,9.71,4.48,39.972,9.214,75.49c-0.021,0.042-0.042,0.074-0.063,0.116c-0.011,0.01-0.011,0.01-0.011,0.01
			c-0.148,0.254-0.296,0.518-0.454,0.771c-0.074,0.116-0.148,0.232-0.232,0.349c-0.148,0.222-0.317,0.454-0.475,0.707
			c-0.095,0.127-0.18,0.264-0.264,0.391c-1.056,1.5-2.207,2.925-3.158,4.161c-0.454,0.919-0.887,1.922-1.246,3.02
			c-0.137,0.422-0.253,0.813-0.338,1.162c0.18,0.085,0.412,0.137,0.718,0.158c1.859,0.137,5.396-0.57,8.417-2.345
			c2.503-3.094,4.932-7.139,5.154-7.952c0.095-0.201,0.169-0.422,0.211-0.665c-0.032-1.267-0.243-2.133-0.591-2.704
			C509.465,348.282,509.423,348.218,509.381,348.155z"/>
		<path fill="#F7A4A4" d="M539.095,160.867c-1.568,6.107,1.929,10.044,1.929,10.044s-4.633,2.969-12.483,2.933
			c-7.862-0.036-0.511-2.816-0.511-2.816s0.662-3.557,1.28-4.175C529.927,166.236,539.095,160.867,539.095,160.867z"/>
		<path fill="#FFB3B3" d="M543.492,153.564c-0.053,1.394-0.253,2.725-0.56,3.812c-0.517,0.518-1.003,0.982-1.489,1.447
			c-0.021,0-0.021,0-0.042,0.021c-0.655,0.771-1.331,1.51-1.985,2.207c-0.148,0.158-0.296,0.317-0.444,0.475
			c-3.137,3.38-6.178,5.999-9.156,6.738c-1.214,0.253-2.746,0.116-3.422-1.352c-0.349-0.507-0.56-1.024-0.444-1.605
			c-0.539-0.433-0.866-0.845-1.098-1.246c-0.127-0.222-0.19-0.486-0.137-0.739c0.095-0.528-0.074-1.098-0.116-1.574
			c-0.56,0.148-0.475,0.465-1.816,0.634c-0.676,0.084,0.032-1.679,0.032-4.372c0-1.774-1.848-5.027-3.369-7.393
			c-1.056-1.647-1.954-2.872-1.954-2.872l0.063-0.349l0.211-1.162l0.908-1.098c-0.19-2.249,2.44-4.9,4.573-5.534
			c0,0,5.777-0.306,10.276,0.021c0.708,0.169,1.257,0.327,1.563,0.433c1.31,0.454,2.461,1.098,3.443,1.827
			c0.011,0,0.011,0.01,0.021,0.01c0.222,0.158,0.422,0.327,0.623,0.496l0.021,0.053L543.492,153.564z"/>
		<path fill="#0D2F6B" d="M544.083,154.578c-0.042,1.394-0.137,2.418-0.443,3.506c-0.486,1.911-4.857,7.278-4.868,7.278
			c-7.469-4.044-6.02-12.041-6.559-12.558c-1.352-1.309-3.675,0.412-6.854,0.412c-1.183,0.01-3.77-0.887-5.914-2.598
			c-0.887-0.708-1.7-1.552-2.302-2.535c-2.249-11.184,11.3-9.6,16.38-8.459c0.708,0.169,1.257,0.327,1.563,0.433
			c1.31,0.454,2.461,1.098,3.443,1.827c0.011,0,0.011,0.01,0.021,0.01c0.222,0.158,0.422,0.327,0.623,0.496
			c0.275,0.222,0.528,0.454,0.771,0.686c1.151,1.119,1.932,2.249,2.292,3.041C543.323,148.516,544.22,152.18,544.083,154.578z"/>
		<path fill="#5C3DC6" d="M513.472,150.243c-2.433,0-4.116-1.82-4.186-1.898c-0.147-0.162-0.135-0.411,0.026-0.559
			c0.163-0.147,0.413-0.135,0.56,0.025c0.014,0.016,1.524,1.639,3.6,1.639c0.219,0,0.396,0.177,0.396,0.396
			S513.691,150.243,513.472,150.243z"/>
		<path fill="#3F1CBC" d="M510.839,211.885l-8.891-3.165l-2.375-14.799c-0.139-0.865,0.633-1.6,1.49-1.419l7.066,1.491
			c0.531,0.112,0.928,0.554,0.984,1.094L510.839,211.885z"/>
		<path fill="#FFB3B3" d="M514.63,208.012c0,0-3.103-4.127-4.646-4.37l0.276,2.713c0.358,0.568,0.601,1.17,0.325,1.722
			c-0.422,0.845-8.091-3.672-8.123-1.332c-0.016,4.208,5.832,6.888,10.722,6.076c4.628,1.403,14.946,4.909,25.029,7.426
			c0.161-1.371,0.724-4.338,2.659-8.441L514.63,208.012z"/>
		<path fill="#3F1CBC" d="M550.928,353.962c0.682,1.112,8.669,8.097,11.903,8.427c3.234,0.33,7.713,1.381,4.042-3.837
			c-3.672-5.22-8.42-7.384-8.42-7.384c0.389,0.518,6.05,4.302,4.342,5.596c-1.24,0.939-3.389,0.275-4.844-0.4
			c-2.38-1.104-7.549-5.796-7.549-5.796C549.842,350.819,550.012,352.95,550.928,353.962z"/>
		<path fill="#3F1CBC" d="M510.099,351.049c-0.042,0.243-0.116,0.465-0.211,0.665c-0.222,0.813-2.651,4.858-5.154,7.952
			c-1.373,1.69-2.767,3.094-3.823,3.538c-2.798,1.162-6.431,3.221-5.312-1.352c0.085-0.349,0.201-0.739,0.338-1.162
			c0.359-1.098,0.792-2.102,1.246-3.02c1.806-3.665,4.066-5.893,4.583-6.379c0,0,0,0,0.011-0.01
			c0.042-0.032,0.074-0.063,0.085-0.074c-0.042,0.127-0.253,0.433-0.549,0.855c-0.074,0.116-0.148,0.232-0.232,0.349
			c-0.148,0.222-0.317,0.454-0.475,0.707c-0.095,0.127-0.18,0.264-0.264,0.391c-1.12,1.732-2.228,3.844-1.014,4.298
			c1.457,0.539,3.327-0.718,4.52-1.774c1.964-1.743,5.566-7.72,5.566-7.72c0.032,0,0.063,0.011,0.095,0.032
			C509.972,348.567,510.3,349.919,510.099,351.049z"/>
	</g>
</g>
</svg>
