<?xml version="1.0" encoding="utf-8"?>
<!-- Generator: Adobe Illustrator 17.0.0, SVG Export Plug-In . SVG Version: 6.00 Build 0)  -->
<!DOCTYPE svg PUBLIC "-//W3C//DTD SVG 1.1//EN" "http://www.w3.org/Graphics/SVG/1.1/DTD/svg11.dtd">
<svg version="1.1" id="Camada_1" xmlns="http://www.w3.org/2000/svg" xmlns:xlink="http://www.w3.org/1999/xlink" x="0px" y="0px"
	 width="668px" height="436px" viewBox="0 0 668 436" enable-background="new 0 0 668 436" xml:space="preserve">
<g>
	<path fill="#D8CCFF" d="M187.778,259.078c-2.116-4.062-4.577-7.903-7.299-11.59c-1.363-1.84-2.775-3.66-4.248-5.446
		c-1.49-1.762-3.048-3.48-4.649-5.183c-3.184-3.44-6.714-6.584-10.485-9.612c-3.762-3.054-7.902-5.749-12.374-8.202
		c-1.115-0.617-2.253-1.214-3.431-1.767c-1.16-0.58-2.351-1.127-3.58-1.626c-1.214-0.512-2.468-0.97-3.748-1.397
		c-1.263-0.459-2.572-0.845-3.9-1.211c-1.313-0.398-2.677-0.701-4.051-0.998c-1.363-0.328-2.777-0.537-4.196-0.756
		c-2.773-0.439-6.086-0.611-7.998-0.749c-4.439-0.342-8.629-0.436-12.56-0.541c-3.929-0.041-7.597-0.089-11.021-0.206
		c-3.425-0.143-6.6-0.472-9.546-1.105c-2.954-0.619-5.658-1.559-8.315-2.691c-2.66-1.126-5.337-2.403-8.174-3.912
		c-2.82-1.516-5.786-3.346-8.789-5.451l-2.227-1.669c-0.746-0.568-1.45-1.213-2.187-1.823c-1.471-1.214-2.938-2.551-4.42-3.884
		c-2.892-2.75-5.767-5.714-8.635-8.829c-5.705-6.259-11.194-13.142-17.041-20.193l-0.044-0.053
		c-0.272-0.328-0.759-0.373-1.087-0.101c-0.199,0.165-0.294,0.414-0.277,0.654l0.521,6.755c0.194,2.262,0.479,4.513,0.726,6.797
		c0.549,4.55,1.198,9.161,2.092,13.803c1.776,9.286,4.515,18.749,9.116,28.325c2.386,4.754,5.163,9.497,8.316,14.688
		c3.227,5.063,7.073,10.439,12.084,14.76c2.493,2.156,5.269,3.979,8.175,5.469c2.929,1.447,5.989,2.546,9.077,3.258
		c6.177,1.471,12.361,1.485,17.995,0.398c1.386-0.258,2.821-0.607,4.14-0.984c1.326-0.443,2.692-0.859,3.947-1.345
		c2.567-0.909,5.003-2.067,7.338-3.136c4.667-2.196,8.944-4.365,13.09-5.817c2.343-0.771,3.436-1.3,5.048-1.77
		c0.775-0.222,1.563-0.479,2.39-0.626c0.82-0.179,1.656-0.37,2.521-0.469c0.86-0.133,1.738-0.258,2.636-0.309
		c0.896-0.087,1.807-0.147,2.733-0.151c0.922-0.026,1.855-0.004,2.798,0.056c0.945,0.027,1.897,0.105,2.858,0.207
		c7.715,0.72,15.786,3.071,23.522,6.439c3.88,1.681,7.706,3.606,11.401,5.787c3.707,2.157,7.321,4.564,10.673,7.232
		c0.325,0.258,0.797,0.205,1.056-0.12c0.19-0.239,0.211-0.559,0.079-0.814L187.778,259.078z"/>
	<path fill="#FFFFFF" d="M43.436,207.934c-2.034-0.217-4.067-0.442-6.099-0.672c-1.233-0.14-1.189-2.084,0.057-1.943
		c1.581,0.179,3.162,0.355,4.744,0.526c0.877,0.095,2.081,0.389,3.189,0.433c-4.348-5.774-8.087-12.142-11.04-18.646
		c-0.296-0.651-0.002-1.433,0.644-1.715c0.651-0.296,1.419-0.008,1.715,0.644c3.06,6.739,6.974,13.335,11.542,19.226
		c0.214,0.117,0.374,0.325,0.458,0.577c2.187,2.772,4.519,5.379,6.977,7.764c0.08-0.218,0.161-0.434,0.234-0.655
		c0.338-1.025,0.607-2.075,0.842-3.128c0.538-2.41,0.992-5.004,0.7-7.478c-0.145-1.226,1.745-1.688,1.892-0.444
		c0.353,2.992-0.152,6.054-0.842,8.967c-0.216,0.911-0.519,2.955-1.222,4.245c10.119,9.211,22.195,14.597,34.873,12.202
		c1.113-0.21,2.21-0.399,3.307-0.588c-3.657-3.133-7.024-6.536-10.089-10.268c-0.79-0.961,0.603-2.318,1.397-1.351
		c3.371,4.105,7.093,7.827,11.184,11.21c13.139-2.077,25.094-2.538,35.845-1.391c-3.864-2.746-7.297-6.254-11.462-8.581
		c-1.095-0.612-0.087-2.274,1.003-1.665c5.331,2.979,9.505,7.957,14.883,10.702c0.072,0.036,0.111,0.088,0.166,0.133
		c22.64,3.508,39.56,14.625,50.528,33.29c0.362,0.616,0.157,1.41-0.461,1.772c-0.012,0.008-0.024,0.014-0.036,0.021
		c-0.611,0.333-1.381,0.124-1.736-0.482c-8.641-14.703-21.178-24.531-37.471-29.472c-5.989,0.124-11.478,1.952-16.39,5.383
		c-1.024,0.715-1.947-0.996-0.931-1.706c3.708-2.59,7.778-4.269,12.101-5.073c-8.212-1.884-17.288-2.639-27.223-2.251
		c-7.985,3.739-13.084,9.739-19.744,15.288c-0.956,0.797-2.313-0.596-1.351-1.397c5.824-4.853,10.278-9.862,16.465-13.623
		c-6.191,0.447-12.689,1.305-19.505,2.593c-5.678,1.073-11.227,0.685-16.549-0.825c-5.789,3.097-11.897,5.107-18.425,6.013
		c-1.227,0.17-1.686-1.72-0.444-1.892c5.721-0.794,11.122-2.437,16.261-4.958c-10.057-3.598-19.195-11.184-26.668-20.59
		C45.682,208.282,44.528,208.05,43.436,207.934z"/>
	<path fill="#CCDFFF" d="M195.453,267.246c0.291-6.697-0.018-13.367-0.769-20.033c-0.381-3.33-0.839-6.67-1.399-10.012
		c-0.6-3.324-1.317-6.641-2.1-9.973c-1.519-6.691-3.693-13.259-6.256-19.857c-2.534-6.625-5.808-13.07-9.682-19.453
		c-0.961-1.599-1.967-3.188-3.056-4.751c-1.045-1.583-2.155-3.149-3.348-4.681c-1.164-1.537-2.419-3.035-3.729-4.514
		c-1.264-1.506-2.642-2.953-4.057-4.39c-1.372-1.465-2.88-2.847-4.404-4.23c-1.487-1.414-3.128-2.713-4.766-4.029
		c-3.194-2.586-7.267-5.229-9.59-6.803c-5.376-3.682-10.619-6.868-15.524-9.877c-4.95-2.927-9.564-5.672-13.819-8.326
		c-4.237-2.688-8.021-5.428-11.291-8.387c-3.292-2.946-6.031-6.117-8.571-9.496c-2.548-3.374-5.007-6.951-7.497-10.941
		c-2.466-3.985-4.885-8.475-7.151-13.342l-1.602-3.746c-0.53-1.266-0.95-2.599-1.438-3.912c-0.975-2.616-1.856-5.384-2.76-8.158
		c-1.653-5.602-3.128-11.463-4.484-17.511c-2.651-12.108-4.571-24.851-6.824-38.067l-0.017-0.1
		c-0.105-0.615-0.689-1.029-1.304-0.924c-0.373,0.063-0.675,0.309-0.829,0.626l-4.283,8.944c-1.409,3.009-2.695,6.071-4.054,9.147
		c-2.635,6.17-5.186,12.488-7.449,19.028c-4.544,13.071-7.998,27.07-9.175,42.576c-0.455,7.773-0.406,15.817-0.208,24.704
		c0.385,8.779,1.325,18.408,4.515,27.553c1.582,4.557,3.767,8.9,6.36,12.915c2.653,3.977,5.728,7.611,9.121,10.772
		c6.753,6.385,14.582,10.929,22.519,13.673c1.946,0.687,4.02,1.294,5.969,1.782c2.005,0.408,4.041,0.882,5.988,1.184
		c3.919,0.726,7.855,1.041,11.596,1.395c7.523,0.632,14.532,1.013,20.85,2.207c3.535,0.737,5.307,0.866,7.693,1.451
		c1.146,0.286,2.332,0.537,3.487,0.956c1.17,0.374,2.37,0.743,3.539,1.251c1.188,0.461,2.392,0.944,3.568,1.537
		c1.199,0.546,2.399,1.135,3.575,1.809c1.188,0.642,2.354,1.353,3.506,2.119c1.178,0.726,2.328,1.522,3.471,2.354
		c9.253,6.559,17.762,15.446,25.103,25.376c3.689,4.97,7.128,10.211,10.217,15.68c3.12,5.447,5.939,11.143,8.236,16.979
		c0.222,0.565,0.861,0.843,1.426,0.621c0.417-0.164,0.677-0.554,0.696-0.975L195.453,267.246z"/>
	<path fill="#FFFFFF" d="M49.917,96.782c-2.419-1.764-4.832-3.536-7.24-5.315c-1.461-1.079,0.017-3.512,1.494-2.421
		c1.873,1.384,3.748,2.764,5.628,4.138c1.042,0.762,2.353,2.017,3.725,2.883c-1.286-10.501-1.364-21.309-0.348-31.715
		c0.101-1.042,1.046-1.818,2.071-1.703c1.042,0.101,1.805,1.029,1.703,2.071c-1.053,10.783-0.918,22.007,0.561,32.817
		c0.185,0.305,0.237,0.686,0.158,1.066c0.744,5.114,1.792,10.125,3.163,14.948c0.26-0.217,0.522-0.432,0.776-0.659
		c1.178-1.052,2.288-2.186,3.356-3.348c2.446-2.66,4.92-5.617,6.36-8.967c0.714-1.66,3.448-0.862,2.724,0.822
		c-1.742,4.052-4.624,7.563-7.63,10.75c-0.94,0.997-2.821,3.365-4.656,4.486c6.085,19.081,17.451,34.745,35.275,40.988
		c1.565,0.548,3.094,1.112,4.622,1.676c-2.343-6.647-4.12-13.425-5.274-20.398c-0.297-1.796,2.461-2.497,2.76-0.69
		c1.269,7.67,3.262,15.112,5.972,22.394c18.175,6.983,33.666,15.148,46.454,24.469c-2.888-6.308-4.673-13.268-8.249-19.265
		c-0.94-1.577,1.554-2.946,2.49-1.376c4.577,7.677,6.226,17.042,11.034,24.458c0.064,0.099,0.077,0.193,0.113,0.289
		c26.131,21.015,39.442,47.49,39.686,79.177c0.008,1.047-0.833,1.903-1.881,1.909c-0.02,0.001-0.041,0.001-0.061,0
		c-1.018-0.024-1.841-0.854-1.848-1.882c-0.193-24.961-8.892-46.594-25.929-64.781c-7.682-4.225-15.977-5.926-24.715-5.171
		c-1.821,0.157-1.738-2.687,0.068-2.843c6.596-0.57,12.984,0.281,19.052,2.426c-9.031-8.398-19.982-15.997-32.86-22.776
		c-12.859-1.104-23.712,2.769-36.215,4.929c-1.796,0.31-2.495-2.448-0.69-2.76c10.935-1.889,20.245-4.979,30.84-5.219
		c-8.174-3.964-17.039-7.632-26.622-10.988c-7.982-2.795-14.733-7.348-20.373-13.156c-9.605-0.311-18.818-2.234-27.755-5.862
		c-1.68-0.682-0.879-3.414,0.822-2.724c7.833,3.18,15.881,5.05,24.241,5.615c-10.114-11.921-16.147-28.224-18.735-45.616
		C52.509,98.867,51.216,97.73,49.917,96.782z"/>
</g>
<path fill="#D2E3FC" d="M243.449,275.163C47.628,268.719-48.828,342.18,47.628,352.085c129.953,13.345,92.464,77.494,213.394,77.455
	c86.731-0.028,120.904-34.694,171.46-32.948c241.944,8.356,218.004-61.463,158.666-79.915
	C438.182,269.109,243.449,275.163,243.449,275.163z"/>
<ellipse fill="#BDD6F9" cx="130.047" cy="347.742" rx="39.703" ry="11.258"/>
<ellipse fill="#BDD6F9" cx="369.849" cy="349.818" rx="194.405" ry="15.771"/>
<g>
	<path fill="#D8CCFF" d="M547.009,304.119c1.442-2.844,3.126-5.536,4.993-8.124c0.935-1.292,1.904-2.569,2.915-3.823
		c1.024-1.238,2.095-2.445,3.197-3.643c2.191-2.419,4.624-4.634,7.226-6.77c2.596-2.155,5.457-4.062,8.551-5.804
		c0.771-0.438,1.559-0.862,2.375-1.256c0.803-0.412,1.628-0.803,2.48-1.159c0.841-0.366,1.711-0.694,2.599-1.001
		c0.875-0.329,1.784-0.607,2.706-0.873c0.911-0.287,1.858-0.508,2.812-0.726c0.946-0.239,1.929-0.395,2.915-0.558
		c1.927-0.327,4.232-0.472,5.562-0.582c3.087-0.272,6.004-0.369,8.739-0.472c2.734-0.058,5.287-0.119,7.67-0.227
		c2.383-0.126,4.591-0.379,6.637-0.842c2.052-0.453,3.927-1.128,5.768-1.936c1.843-0.804,3.697-1.713,5.66-2.786
		c1.952-1.076,4.002-2.373,6.076-3.861l1.538-1.179c0.515-0.401,1-0.856,1.509-1.286c1.014-0.856,2.026-1.798,3.047-2.737
		c1.992-1.936,3.971-4.021,5.944-6.211c3.923-4.4,7.692-9.233,11.709-14.185l0.03-0.037c0.187-0.231,0.526-0.266,0.756-0.079
		c0.14,0.113,0.208,0.286,0.198,0.453l-0.311,4.706c-0.118,1.576-0.299,3.145-0.454,4.737c-0.347,3.172-0.764,6.386-1.352,9.624
		c-1.166,6.477-3,13.085-6.13,19.786c-1.625,3.328-3.522,6.65-5.677,10.288c-2.208,3.549-4.844,7.32-8.299,10.367
		c-1.719,1.52-3.637,2.81-5.649,3.869c-2.028,1.029-4.15,1.818-6.293,2.337c-4.289,1.071-8.593,1.128-12.523,0.414
		c-0.967-0.169-1.968-0.401-2.89-0.654c-0.927-0.299-1.88-0.577-2.758-0.906c-1.794-0.614-3.499-1.401-5.131-2.127
		c-3.265-1.493-6.259-2.971-9.156-3.95c-1.637-0.519-2.401-0.879-3.527-1.193c-0.541-0.149-1.092-0.321-1.668-0.417
		c-0.572-0.118-1.156-0.245-1.759-0.307c-0.6-0.086-1.211-0.167-1.837-0.195c-0.624-0.054-1.259-0.089-1.904-0.084
		c-0.642-0.011-1.291,0.011-1.947,0.06c-0.657,0.026-1.32,0.087-1.988,0.166c-5.365,0.56-10.965,2.258-16.325,4.661
		c-2.688,1.199-5.336,2.569-7.892,4.115c-2.564,1.53-5.061,3.233-7.375,5.116c-0.224,0.182-0.553,0.149-0.736-0.075
		c-0.134-0.165-0.151-0.388-0.061-0.566L547.009,304.119z"/>
	<path fill="#FFFFFF" d="M647.096,267.421c1.414-0.167,2.828-0.338,4.241-0.514c0.857-0.106,0.812-1.459-0.054-1.352
		c-1.099,0.137-2.198,0.271-3.298,0.402c-0.61,0.073-1.446,0.287-2.216,0.326c2.983-4.052,5.537-8.513,7.543-13.064
		c0.201-0.455-0.009-0.997-0.461-1.189c-0.456-0.201-0.988,0.005-1.189,0.461c-2.079,4.715-4.753,9.335-7.889,13.471
		c-0.148,0.083-0.258,0.229-0.314,0.405c-1.501,1.946-3.105,3.778-4.798,5.457c-0.057-0.151-0.116-0.301-0.168-0.454
		c-0.243-0.711-0.438-1.44-0.61-2.171c-0.393-1.673-0.729-3.476-0.544-5.2c0.091-0.855-1.228-1.162-1.32-0.295
		c-0.223,2.086,0.152,4.213,0.654,6.235c0.157,0.632,0.384,2.053,0.883,2.946c-6.974,6.489-15.339,10.329-24.183,8.758
		c-0.776-0.138-1.542-0.261-2.307-0.384c2.522-2.208,4.84-4.603,6.945-7.224c0.542-0.675-0.438-1.609-0.983-0.93
		c-2.316,2.883-4.878,5.502-7.7,7.888c-9.162-1.346-17.487-1.576-24.962-0.696c2.669-1.941,5.032-4.409,7.913-6.06
		c0.758-0.434,0.043-1.584-0.711-1.151c-3.688,2.114-6.556,5.611-10.279,7.563c-0.05,0.026-0.077,0.062-0.114,0.094
		c-15.733,2.614-27.426,10.481-34.92,23.557c-0.248,0.432-0.099,0.983,0.334,1.23c0.008,0.005,0.017,0.01,0.025,0.014
		c0.428,0.227,0.962,0.076,1.205-0.349c5.904-10.3,14.556-17.237,25.86-20.8c4.17,0.041,8.004,1.272,11.45,3.623
		c0.718,0.49,1.347-0.708,0.635-1.194c-2.601-1.775-5.447-2.913-8.462-3.439c5.702-1.374,12.014-1.968,18.932-1.774
		c5.587,2.542,9.182,6.68,13.86,10.492c0.672,0.548,1.605-0.433,0.93-0.983c-4.091-3.334-7.229-6.787-11.565-9.358
		c4.313,0.264,8.843,0.812,13.597,1.657c3.96,0.704,7.821,0.392,11.513-0.7c4.054,2.112,8.321,3.465,12.871,4.046
		c0.855,0.109,1.161-1.21,0.295-1.321c-3.989-0.509-7.76-1.612-11.357-3.328c6.973-2.581,13.277-7.931,18.407-14.535
		C645.536,267.681,646.337,267.511,647.096,267.421z"/>
	<path fill="#CCDFFF" d="M541.728,309.863c-0.253-4.66-0.089-9.305,0.383-13.951c0.24-2.321,0.533-4.649,0.898-6.98
		c0.392-2.318,0.866-4.633,1.386-6.958c1.007-4.669,2.47-9.258,4.204-13.87c1.713-4.631,3.944-9.142,6.592-13.615
		c0.657-1.12,1.345-2.234,2.091-3.33c0.716-1.11,1.476-2.209,2.295-3.284c0.799-1.079,1.661-2.131,2.562-3.171
		c0.869-1.058,1.817-2.076,2.791-3.087c0.944-1.03,1.983-2.004,3.034-2.978c1.024-0.995,2.157-1.912,3.287-2.841
		c2.203-1.824,5.019-3.695,6.624-4.808c3.715-2.604,7.34-4.861,10.732-6.993c3.424-2.075,6.615-4.021,9.556-5.901
		c2.929-1.903,5.542-3.839,7.796-5.924c2.269-2.076,4.152-4.304,5.894-6.675c1.748-2.368,3.432-4.877,5.136-7.673
		c1.686-2.793,3.336-5.937,4.876-9.342l1.087-2.62c0.359-0.885,0.642-1.817,0.972-2.734c0.659-1.828,1.251-3.762,1.859-5.7
		c1.108-3.912,2.09-8.003,2.989-12.223c1.753-8.449,2.993-17.333,4.461-26.55l0.011-0.07c0.068-0.429,0.472-0.721,0.901-0.653
		c0.26,0.041,0.472,0.21,0.582,0.429l3.049,6.193c1.004,2.084,1.922,4.206,2.891,6.336c1.881,4.275,3.705,8.654,5.33,13.189
		c3.263,9.064,5.773,18.783,6.71,29.567c0.376,5.407,0.403,11.007,0.333,17.195c-0.201,6.114-0.783,12.824-2.933,19.214
		c-1.066,3.184-2.554,6.224-4.329,9.038c-1.817,2.789-3.93,5.341-6.267,7.568c-4.652,4.496-10.067,7.718-15.571,9.689
		c-1.35,0.493-2.789,0.931-4.141,1.286c-1.393,0.299-2.806,0.644-4.159,0.87c-2.723,0.535-5.46,0.784-8.061,1.059
		c-5.232,0.497-10.108,0.815-14.497,1.694c-2.455,0.54-3.687,0.643-5.344,1.068c-0.795,0.207-1.619,0.392-2.42,0.692
		c-0.812,0.269-1.644,0.536-2.454,0.898c-0.823,0.33-1.658,0.675-2.472,1.097c-0.83,0.389-1.661,0.809-2.475,1.287
		c-0.822,0.456-1.628,0.96-2.424,1.502c-0.814,0.514-1.609,1.077-2.398,1.665c-6.391,4.636-12.246,10.887-17.281,17.855
		c-2.53,3.488-4.884,7.162-6.993,10.992c-2.131,3.816-4.05,7.802-5.604,11.882c-0.151,0.395-0.593,0.593-0.988,0.443
		c-0.291-0.111-0.476-0.381-0.492-0.673L541.728,309.863z"/>
	<path fill="#FFFFFF" d="M641.74,190.098c1.671-1.246,3.337-2.498,4.999-3.755c1.009-0.762-0.039-2.444-1.058-1.674
		c-1.293,0.977-2.588,1.952-3.886,2.923c-0.719,0.538-1.622,1.422-2.571,2.035c0.816-7.32,0.788-14.843,0.001-22.08
		c-0.078-0.725-0.742-1.258-1.454-1.169c-0.725,0.078-1.249,0.73-1.169,1.454c0.815,7.498,0.806,15.312-0.141,22.848
		c-0.126,0.214-0.16,0.479-0.102,0.743c-0.479,3.565-1.17,7.062-2.088,10.429c-0.183-0.149-0.367-0.297-0.545-0.453
		c-0.828-0.723-1.609-1.504-2.362-2.305c-1.723-1.833-3.467-3.873-4.495-6.194c-0.51-1.15-2.406-0.574-1.89,0.593
		c1.243,2.807,3.276,5.229,5.393,7.425c0.662,0.687,1.989,2.321,3.275,3.088c-4.091,13.329-11.884,24.319-24.244,28.8
		c-1.085,0.393-2.145,0.797-3.205,1.201c1.58-4.645,2.766-9.376,3.516-14.239c0.193-1.253-1.732-1.719-1.926-0.459
		c-0.825,5.349-2.156,10.544-3.987,15.634c-12.599,4.999-23.32,10.8-32.151,17.386c1.962-4.413,3.152-9.271,5.595-13.473
		c0.642-1.105-1.104-2.039-1.744-0.939c-3.128,5.379-4.204,11.91-7.495,17.109c-0.044,0.069-0.052,0.135-0.076,0.202
		c-18.03,14.827-27.095,33.358-27.024,55.416c0.002,0.729,0.594,1.318,1.324,1.315c0.014,0.001,0.028,0,0.043,0
		c0.709-0.025,1.275-0.608,1.272-1.324c-0.055-17.377,5.836-32.502,17.557-45.291c5.315-2.999,11.077-4.246,17.165-3.787
		c1.269,0.096,1.19-1.884-0.069-1.979c-4.596-0.346-9.036,0.294-13.243,1.834c6.222-5.914,13.788-11.287,22.7-16.104
		c8.943-0.866,16.527,1.747,25.247,3.156c1.252,0.202,1.718-1.723,0.459-1.926c-7.626-1.232-14.131-3.312-21.508-3.399
		c5.66-2.821,11.803-5.442,18.448-7.851c5.535-2.007,10.2-5.227,14.082-9.313c6.684-0.29,13.082-1.698,19.276-4.291
		c1.164-0.488,0.586-2.383-0.593-1.89c-5.429,2.273-11.016,3.636-16.831,4.093c6.95-8.375,11.025-19.769,12.695-31.896
		C639.952,191.569,640.843,190.767,641.74,190.098z"/>
</g>
<g>
	<g>
		<path fill-rule="evenodd" clip-rule="evenodd" fill="#6A36CE" d="M382.442,135.05c0.21,0.578,0.478,1.124,0.784,1.682
			c0.252,0.46,1.28,0.849,1.572,1.351c2.075,3.368,4.214,6.257,6.406,8.86c2.833,3.363,5.705,6.63,7.492,10.233
			c3.227,0.55,7.926,1.734,12.892,2.425c8.737,1.217,18.331,1.733,20.071,5.985l2.587,7.018l-2.433,3.092
			c-5.4-1.006-10.079-1.027-14.871-1.815c-1.416-0.233-3.257-0.679-4.68-0.965c-5.079-1.022-10.307-2.673-15.824-4.898
			c-0.964-0.389-1.871-0.592-2.527-0.858c-0.343-0.092-0.942-0.609-1.175-0.863c-0.661-0.533-1.34-1.256-2.022-2.094
			c-2.673-3.169-5.872-8.181-7.77-12.056c-1.513-3.089-2.999-6.3-4.381-10.262c-0.217-0.624-0.16-1.972-0.374-2.597
			c-0.202-0.588-0.426-1.013-0.67-1.377C378.649,136.547,380.678,135.079,382.442,135.05z"/>
		<path opacity="0.5" fill-rule="evenodd" clip-rule="evenodd" fill="#7E41DF" d="M426.99,162.652
			c2.555,0.552,5.137,1.669,5.806,3.304l2.587,7.018l-2.433,3.092c-5.4-1.006-10.079-1.027-14.871-1.815
			c-1.416-0.233-3.257-0.679-4.68-0.965c-5.079-1.022-10.308-2.673-15.824-4.898c-0.964-0.389-1.871-0.592-2.527-0.857l-1.174-0.863
			c11.355,3.123,14.909,0.678,25.153-2.149C423.502,163.284,426.658,162.581,426.99,162.652z"/>
	</g>
	<g>
		<path fill="#83A7E1" d="M193.266,352.152h142.492c10.204,0,18.477-8.272,18.477-18.477V26.937
			c0-10.205-8.272-18.477-18.477-18.477H193.266c-10.205,0-18.477,8.273-18.477,18.477v306.738
			C174.789,343.879,183.062,352.152,193.266,352.152z"/>
		<path fill="#F0FAFF" d="M193.918,315.659h141.189c5.236,0,9.48-4.244,9.48-9.48V29.609c0-5.236-4.244-9.48-9.48-9.48H193.918
			c-5.236,0-9.48,4.244-9.48,9.48v276.57C184.438,311.415,188.682,315.659,193.918,315.659z"/>
		<path fill="#83A7E1" d="M350.926,16.4c2.081,2.99,3.31,6.618,3.31,10.537v306.738c0,10.205-8.272,18.477-18.477,18.477H193.266
			c-6.053,0-11.409-2.923-14.779-7.421L350.926,16.4z"/>
		<path fill="#F0FAFF" d="M343.191,24.676c0.88,1.438,1.396,3.123,1.396,4.933v276.57c0,5.236-4.244,9.48-9.48,9.48H193.918
			c-3.181,0-5.99-1.573-7.709-3.977L343.191,24.676z"/>
		<circle fill="#080D30" cx="264.44" cy="334.047" r="14.71"/>
		<path fill="#D3DCE6" d="M235.494,138.818h-25.427c-4.299,0-7.784-2.888-7.784-6.45l0,0c0-3.562,3.485-6.45,7.784-6.45h25.427
			c4.299,0,7.784,2.888,7.784,6.45l0,0C243.278,135.93,239.793,138.818,235.494,138.818z"/>
		<path fill="#D3DCE6" d="M276.489,160.03h-66.423c-4.299,0-7.784-2.888-7.784-6.45l0,0c0-3.562,3.485-6.45,7.784-6.45h66.423
			c4.299,0,7.784,2.888,7.784,6.45l0,0C284.273,157.143,280.788,160.03,276.489,160.03z"/>
		<path fill="#D3DCE6" d="M235.71,188.857h-25.427c-4.299,0-7.784-2.888-7.784-6.45l0,0c0-3.562,3.485-6.45,7.784-6.45h25.427
			c4.299,0,7.784,2.888,7.784,6.45l0,0C243.494,185.97,240.009,188.857,235.71,188.857z"/>
		<path fill="#D3DCE6" d="M276.705,210.07h-66.423c-4.299,0-7.784-2.888-7.784-6.45l0,0c0-3.562,3.485-6.45,7.784-6.45h66.423
			c4.299,0,7.784,2.888,7.784,6.45l0,0C284.489,207.182,281.004,210.07,276.705,210.07z"/>
		<path fill="#D3DCE6" d="M288.53,237.732h-66.423c-4.299,0-7.784-2.888-7.784-6.45l0,0c0-3.562,3.485-6.45,7.784-6.45h66.423
			c4.299,0,7.784,2.888,7.784,6.45l0,0C296.313,234.844,292.829,237.732,288.53,237.732z"/>
		<path fill="#D3DCE6" d="M235.494,237.732h-25.427c-4.299,0-7.784-2.888-7.784-6.45l0,0c0-3.562,3.485-6.45,7.784-6.45h25.427
			c4.299,0,7.784,2.888,7.784,6.45l0,0C243.278,234.844,239.793,237.732,235.494,237.732z"/>
		<path fill="#D3DCE6" d="M276.489,258.944h-66.423c-4.299,0-7.784-2.888-7.784-6.45l0,0c0-3.562,3.485-6.45,7.784-6.45h66.423
			c4.299,0,7.784,2.888,7.784,6.45l0,0C284.273,256.057,280.788,258.944,276.489,258.944z"/>
	</g>
	<polygon fill="#E7A78D" points="156.911,173.783 158.413,169.183 148.669,169.183 	"/>
	<path fill-rule="evenodd" clip-rule="evenodd" fill="#FFB3B3" d="M376.488,121.072c-1.01-0.915-2.067-4.801-5.698-6.194
		c-1.33-0.51-4.37-0.426-5.12,0.449c-0.641,1.203-0.422,3.813,1.188,4.813"/>
	<g opacity="0.6">
		<path fill="#D3DCE6" d="M261.143,199.239l130.245,12.681c4.517,0.44,8.535-2.866,8.975-7.383l6.892-70.791
			c0.44-4.517-2.866-8.535-7.383-8.975l-130.245-12.681c-4.517-0.44-8.535,2.866-8.975,7.383l-6.892,70.791
			C253.321,194.781,256.626,198.799,261.143,199.239z"/>
	</g>
	<g>
		<path fill="#9B87E1" d="M154.497,184.007l-0.868,20.132c0,0-25.483,1.96-43.559-3.702l4.791-27.005l35.704,2.178L154.497,184.007z
			"/>
		<path fill="#FFB3B3" d="M144.769,128.133c0.726-0.871,1.335-5.273,1.335-5.273l0.205-1.453c1.369,1.53,2.918,4.122,5.138,4.33
			c2.292,0.215,4.602-0.519,6.677-1.592l0.002,0.001c0,0-1.742,5.584-1.815,6.455s0.907,2.323,0.907,2.323
			s-7.949,6.098-10.127,5.372c-2.178-0.726-4.09-9.437-4.09-9.437S144.043,129.004,144.769,128.133z"/>
		<path fill="#8661E0" d="M112.588,186.24l2.272-12.808l35.704,2.178l3.932,8.397l-0.333,7.715
			C145.434,192.174,127.035,192.23,112.588,186.24z"/>
		<path fill="#9B87E1" d="M160.919,137.716c0,0,9.04,9.219,10.565,12.777c1.525,3.557,4.625,28.507,1.906,32.427
			c-2.719,3.92-8.657,10.549-35.662-9.487l-2.613,7.84c0,0-26.569-1.307-32.232-9.365c-5.662-8.058,8.058-29.401,10.671-34.192
			s23.085-7.108,23.085-7.108s6.751,6.527,10.454,7.689C150.794,139.458,160.919,137.716,160.919,137.716z"/>
		<path fill="#F0FAFF" d="M157.219,132.924l3.7,4.791l-10.355,12.777l-3.472-12.196C149.27,139.022,157.219,132.924,157.219,132.924
			z"/>
		<path fill="#F0FAFF" d="M143.002,128.859c0,0,1.912,8.711,4.09,9.437l-10.454,7.695v-15.383L143.002,128.859z"/>
		<polygon fill="#FFB3B3" points="135.114,181.272 148.372,180.658 137.727,173.432 		"/>
		<polygon fill="#D8CCFF" points="149.283,145.991 145.568,150.492 141.218,149.258 140.78,142.943 147.092,138.296 		"/>
		<polygon fill="#D8CCFF" points="144.043,168.012 145.568,150.492 141.218,149.258 130.976,168.012 		"/>
		<path fill="#386DC1" d="M110.069,200.437c18.076,5.662,43.559,3.702,43.559,3.702s-2.035,51.034-3.487,66.714
			c0,0,5.372,6.679-4.573,67.077c0,0-6.461,1.452-11.688,0c0,0-1.161-51.397-1.597-64.464c-0.436-13.067-3.92-50.526-3.92-50.526
			l-13.502,46.46c0,0,5.082,6.679,8.276,21.778c3.194,15.1,7.84,33.684,7.84,33.684s-6.679,6.388-10.744,5.517
			c0,0-23.23-53.72-25.263-62.141C92.937,259.819,110.069,200.437,110.069,200.437z"/>
		<path fill="#2E2E65" d="M145.568,337.93c0,0,11.542,12.994,10.671,16.043c-0.871,3.049-20.907,1.96-22.432,0
			c-1.524-1.96,0.073-16.043,0.073-16.043S139.47,338.656,145.568,337.93z"/>
		<path fill="#2E2E65" d="M130.976,324.863c0,0,2.738,5.815,2.768,7.121c0.03,1.306-0.268,10.238-0.268,10.238
			s-1.649,2.387-9.261,2.169c-7.613-0.218-9.355,0.436-10.008-0.871c-0.653-1.307-0.218-5.009,3.92-6.533
			c4.138-1.524,2.105-6.606,2.105-6.606S124.225,330.816,130.976,324.863z"/>
		<path fill="#F4A2A2" d="M145.631,125.546c0.288-1.347,0.474-2.686,0.474-2.686l0.205-1.453c1.369,1.53,2.918,4.122,5.138,4.33
			c2.292,0.215,4.602-0.519,6.677-1.592l0.002,0.001c0,0-0.513,1.645-0.994,3.288C154.413,128.054,149.54,128.524,145.631,125.546z"
			/>
		<g>
			<path fill="#E5E5E5" d="M165.168,171.908c0,0-0.302-0.297-0.886-0.735c-0.278-0.236-0.657-0.469-1.072-0.752
				c-0.214-0.134-0.455-0.254-0.7-0.392c-0.243-0.141-0.498-0.288-0.785-0.402c-0.282-0.122-0.568-0.263-0.874-0.383
				c-0.314-0.095-0.639-0.192-0.973-0.293c-0.326-0.125-0.688-0.139-1.045-0.198c-0.179-0.027-0.359-0.055-0.542-0.082
				c-0.084-0.01-0.197-0.041-0.258-0.034l-0.294-0.005c-0.786-0.017-1.598-0.034-2.423-0.051c-0.824-0.016-1.665-0.077-2.498-0.056
				c-3.331,0.011-6.669-0.079-9.189-0.132c-1.257-0.023-2.307-0.1-3.041-0.118c-0.735-0.043-1.155-0.067-1.155-0.067
				s1.671-0.217,4.184-0.378c1.258-0.062,2.72-0.192,4.299-0.228c1.579-0.048,3.265-0.06,4.951-0.075
				c0.844-0.008,1.676,0.064,2.502,0.091c0.824,0.047,1.634,0.093,2.419,0.137l0.293,0.018c0.135,0.003,0.209,0.036,0.316,0.052
				c0.197,0.043,0.392,0.085,0.585,0.127c0.383,0.095,0.767,0.146,1.108,0.307c0.346,0.136,0.683,0.268,1.009,0.397
				c0.313,0.153,0.603,0.326,0.887,0.478c0.577,0.288,1.023,0.687,1.441,0.99c0.387,0.348,0.735,0.632,0.985,0.908
				c0.266,0.257,0.446,0.489,0.571,0.641C165.109,171.82,165.168,171.908,165.168,171.908z"/>
		</g>
		<g>
			<path fill="#E5E5E5" d="M165.168,158.9c0,0-0.112,0.692-0.401,1.678c-0.282,0.989-0.736,2.275-1.264,3.529
				c-0.534,1.252-1.141,2.472-1.656,3.362c-0.508,0.893-0.928,1.454-0.928,1.454s0.111-0.692,0.4-1.678
				c0.281-0.989,0.737-2.274,1.265-3.528c0.534-1.251,1.143-2.472,1.658-3.362C164.749,159.461,165.168,158.9,165.168,158.9z"/>
		</g>
		<g>
			<path fill="#E5E5E5" d="M128.363,168.205c0,0-0.832-0.335-2.08-0.837c-0.615-0.256-1.353-0.506-2.117-0.82
				c-0.391-0.136-0.8-0.263-1.205-0.417c-0.406-0.153-0.818-0.309-1.244-0.418c-0.842-0.249-1.669-0.566-2.475-0.739
				c-0.803-0.178-1.538-0.462-2.193-0.559c-1.302-0.246-2.187-0.502-2.187-0.502s0.895-0.082,2.264-0.067
				c0.344-0.012,0.712,0.019,1.096,0.086c0.386,0.054,0.795,0.109,1.215,0.184c0.421,0.072,0.861,0.127,1.286,0.271
				c0.43,0.124,0.867,0.25,1.304,0.376c0.872,0.261,1.698,0.648,2.481,0.977c0.385,0.181,0.744,0.385,1.087,0.568
				c0.345,0.18,0.665,0.361,0.948,0.553C127.702,167.572,128.363,168.205,128.363,168.205z"/>
		</g>
		<g>
			<path fill="#E5E5E5" d="M120.305,148.169c0,0,0.02,0.25,0.031,0.686c0.001,0.435,0.031,1.058,0.015,1.802
				c-0.017,1.488-0.124,3.464-0.311,5.432c-0.194,1.967-0.466,3.927-0.736,5.391c-0.127,0.733-0.277,1.339-0.362,1.765
				c-0.094,0.425-0.162,0.667-0.162,0.667s-0.02-0.25-0.031-0.686c-0.001-0.435-0.032-1.058-0.016-1.802
				c0.016-1.488,0.125-3.464,0.312-5.432c0.194-1.967,0.468-3.927,0.737-5.391c0.127-0.732,0.277-1.339,0.361-1.765
				C120.237,148.411,120.305,148.169,120.305,148.169z"/>
		</g>
		<path fill="#4856A3" d="M138.892,219.013c0,0-10.18,0.686-22.58-2.896c0,0,4.298,4.829,12.051,6.824
			C128.363,222.941,135.375,222.9,138.892,219.013z"/>
		<path fill="#FFB3B3" d="M157.93,127.757c-4.647,0.946-10.744-3.125-12.088-7.509c-0.813-2.651-0.768-5.12,0.05-7.663
			c0.921-2.864,2.414-5.248,3.362-8.119c0.409-1.238,0.851-2.475,1.512-3.604c1.056-1.806,2.672-3.296,4.586-4.23
			c1.881-0.918,4.019-0.775,6.072-0.932c1.739-0.132,3.734-0.373,5.431,0.159c1.171,0.367,1.563,1.38,2.167,2.39
			c3.276,5.485,2.181,13.56-0.506,19.1C166.515,121.474,162.712,126.785,157.93,127.757z"/>
		<path fill="#0D2F6B" d="M180.848,99.365c0.845-1.984-0.297-2.602-2.072-3.203c-1.729-0.586-3.559-0.928-5.245-1.706
			c-1.874-0.865-3.284-2.052-4.91-3.246c-2.808-2.062-6.374-2.91-9.907-2.891c-5.302,0.028-10.622,6.935-12.318,12.077
			c-0.56,1.699,0.245,1.9,0.901,3.311c0.344,0.74-0.266,1.267,0.313,1.856c0.45,0.458,0.926-0.451,1.599-0.188
			c0.445-0.222,1.409,1.423,1.473,1.839c0.104,0.675-0.178,1.757,0.773,1.935c0.853,0.16,1.595-0.649,2.01-1.27
			c0.885-1.32,1.414-2.826,2.187-4.205c1.591-2.836,4.245-1.469,6.74-0.713c4.28,1.296,8.157,2.596,12.756,1.69
			C177.69,104.151,179.869,101.666,180.848,99.365z"/>
		<g>
			<path fill="#FFB3B3" d="M144.088,109.035c-0.102,2.237,2.28,5.847,3.508,4.216c0.752-0.997,1.779-3.348,1.881-5.585
				c0.101-2.236,0.526-2.422-1.514-2.514C145.925,105.06,144.189,106.798,144.088,109.035z"/>
		</g>
	</g>
	<g>
		<rect x="232.264" y="33.855" fill="#F0FAFF" width="64.498" height="64.498"/>
		<g>
			<path fill="#386DC1" d="M234.076,55.687h20.182V35.505h-20.182V55.687z M236.746,38.175h14.85v14.85h-14.85V38.175z"/>
			<rect x="239.627" y="41.383" fill="#386DC1" width="8.54" height="8.54"/>
			<path fill="#386DC1" d="M234.076,96.702h20.182V76.521h-20.182V96.702z M236.746,79.19h14.85v14.85h-14.85V79.19z"/>
			<rect x="239.627" y="82.399" fill="#386DC1" width="8.54" height="8.54"/>
			<path fill="#386DC1" d="M294.838,35.505h-20.182v20.182h20.182V35.505z M292.176,53.025h-14.85v-14.85h14.85V53.025z"/>
			<rect x="280.207" y="41.383" fill="#386DC1" width="8.54" height="8.54"/>
			<rect x="234.076" y="58.682" fill="#386DC1" width="8.488" height="2.937"/>
			<polygon fill="#386DC1" points="236.746,70.431 245.234,70.431 245.234,70.405 248.167,70.405 248.167,58.682 245.234,58.682 
				245.234,67.494 236.746,67.494 			"/>
			<rect x="257.143" y="41.383" fill="#386DC1" width="2.883" height="2.883"/>
			<rect x="262.964" y="41.383" fill="#386DC1" width="2.883" height="2.883"/>
			<rect x="286.382" y="90.749" fill="#386DC1" width="2.883" height="2.883"/>
			<rect x="262.996" y="53.025" fill="#386DC1" width="2.883" height="2.883"/>
			<rect x="274.68" y="58.709" fill="#386DC1" width="2.883" height="2.883"/>
			<rect x="260.026" y="49.924" fill="#386DC1" width="2.883" height="2.883"/>
			<rect x="292.066" y="76.364" fill="#386DC1" width="2.883" height="2.883"/>
			<rect x="251.375" y="70.405" fill="#386DC1" width="2.883" height="2.883"/>
			<rect x="280.207" y="73.315" fill="#386DC1" width="2.883" height="2.883"/>
			<rect x="268.81" y="44.212" fill="#386DC1" width="2.883" height="2.883"/>
			<rect x="286.382" y="58.709" fill="#386DC1" width="2.883" height="2.883"/>
			<rect x="251.213" y="64.662" fill="#386DC1" width="2.883" height="2.883"/>
			<rect x="268.835" y="53.025" fill="#386DC1" width="2.883" height="2.883"/>
			<rect x="262.964" y="35.505" fill="#386DC1" width="8.648" height="2.67"/>
			<rect x="289.237" y="61.619" fill="#386DC1" width="2.939" height="8.812"/>
			<rect x="280.207" y="79.19" fill="#386DC1" width="11.532" height="2.556"/>
			<polygon fill="#386DC1" points="283.315,67.685 283.281,67.685 283.281,62.074 280.017,62.074 280.017,67.685 271.783,67.685 
				271.783,70.241 283.315,70.241 			"/>
			<polygon fill="#386DC1" points="257.143,67.494 257.143,73.315 262.909,73.315 262.909,76.226 271.397,76.226 271.397,73.288 
				262.964,73.288 262.964,67.837 265.861,67.837 265.861,59.409 262.95,59.409 262.95,67.494 			"/>
			<rect x="257.143" y="88.274" fill="#386DC1" width="2.911" height="8.428"/>
			<rect x="257.129" y="53.025" fill="#386DC1" width="2.911" height="8.428"/>
			<rect x="280.207" y="90.939" fill="#386DC1" width="3.264" height="5.763"/>
			<polygon fill="#386DC1" points="274.49,76.364 271.72,76.364 271.72,79.247 271.613,79.247 271.613,79.19 260.23,79.19 
				260.081,79.19 256.966,79.19 256.966,85.108 260.23,85.108 260.23,81.746 268.81,81.746 268.81,90.939 262.964,90.939 
				262.964,93.605 274.657,93.605 274.657,90.939 271.743,90.939 271.743,79.247 274.49,79.247 274.49,82.072 277.754,82.072 
				277.754,76.309 274.49,76.309 			"/>
			<rect x="292.176" y="88.274" fill="#386DC1" width="2.662" height="7.833"/>
		</g>
	</g>
	<g>
		<path fill="#A0BEFA" d="M264.635,196.024l130.245,12.681c4.517,0.44,8.535-2.866,8.975-7.383l6.892-70.791
			c0.44-4.517-2.866-8.535-7.383-8.975L273.12,108.876c-4.517-0.44-8.535,2.866-8.975,7.383l-6.892,70.791
			C256.813,191.566,260.118,195.585,264.635,196.024z"/>
		<path fill="#E9E7FE" d="M373.09,201.696l13.855,1.349c3.436,0.335,6.416-1.387,6.655-3.844l0.965-9.91
			c0.239-2.458-2.352-4.721-5.788-5.056l-13.855-1.349c-3.436-0.335-6.416,1.387-6.655,3.844l-0.965,9.91
			C367.063,199.098,369.654,201.362,373.09,201.696z"/>
		
			<rect x="261.974" y="133.824" transform="matrix(-0.9953 -0.0969 0.0969 -0.9953 655.6099 318.2755)" fill="#386DC1" width="147.119" height="18.788"/>
	</g>
</g>
<g id="XMLID_214_">
	<g id="XMLID_223_">
		<path id="XMLID_224_" fill="#C7CBD1" d="M587.853,142.176l-38.935-0.75l-49.166-0.954l-0.118-0.002
			c-4.376-0.011-8.722-2.948-11.948-8.795c-3.093-5.605-7.204-8.538-11.383-8.792l33.552,0.663l5.304,0.098l49.095,0.943
			l0.542,0.017c4.252,0.147,8.454,3.095,11.596,8.789C579.5,139.025,583.63,141.963,587.853,142.176z"/>
	</g>
	<g id="XMLID_221_" opacity="0.1">
		<path id="XMLID_222_" d="M587.853,142.176l-38.935-0.75l-49.166-0.954l-0.118-0.002c-4.376-0.011-8.722-2.948-11.948-8.795
			c-3.093-5.605-7.204-8.538-11.383-8.792l33.552,0.663l5.304,0.098l49.095,0.943l0.542,0.017c4.252,0.147,8.454,3.095,11.596,8.789
			C579.5,139.025,583.63,141.963,587.853,142.176z"/>
	</g>
	<g id="XMLID_219_">
		<path id="XMLID_220_" fill="#C7CBD1" d="M596.115,83.519l4.952,8.973c6.376,11.555,6.021,30.063-0.795,41.352
			c-3.356,5.574-7.67,8.354-11.93,8.345l-0.488-0.013c-4.223-0.213-8.354-3.151-11.461-8.782c-3.142-5.694-7.344-8.643-11.596-8.789
			l-0.542-0.017l-49.095-0.943c3.048-10.739,2.162-23.909-2.787-32.877l-4.945-8.961L596.115,83.519z"/>
	</g>
	<g id="XMLID_217_">
		<path id="XMLID_218_" fill="#D3DAE2" d="M564.255,124.588c-4.211,0.08-8.436,2.843-11.748,8.343
			c-1.519,2.517-2.718,5.405-3.589,8.495c-3.054,10.726-2.155,23.889,2.794,32.858c6.376,11.554,6.008,30.071-0.802,41.373
			c-6.816,11.288-11.451,18.976-11.451,18.976l-89.599-0.24c0,0,5.528-9.166,12.344-20.455c6.815-11.289,7.176-29.817,0.801-41.371
			c-6.369-11.541-6.021-30.063,0.808-41.359c3.35-5.554,7.652-8.327,11.904-8.33l0.02,0.005l0.567,0.003l33.552,0.663l5.304,0.098
			L564.255,124.588z"/>
	</g>
	<g id="XMLID_215_">
		<path id="XMLID_216_" fill="#D3DCE5" d="M564.255,124.588c-4.211,0.08-8.436,2.843-11.748,8.343
			c-1.519,2.517-2.718,5.405-3.589,8.495c-3.054,10.726-2.155,23.889,2.794,32.858c6.376,11.554,6.008,30.071-0.802,41.373
			c-6.816,11.288-11.451,18.976-11.451,18.976l-89.599-0.24c0,0,5.528-9.166,12.344-20.455c6.815-11.289,7.176-29.817,0.801-41.371
			c-6.369-11.541-6.021-30.063,0.808-41.359c3.35-5.554,7.652-8.327,11.904-8.33l0.02,0.005l0.567,0.003l33.552,0.663l5.304,0.098
			L564.255,124.588z"/>
	</g>
</g>
<g>
	<g>
		<path fill="#775DD4" d="M555.261,218.461c-29.141,0-58.283,0.011-87.424,0c-13.89-0.006-27.791-0.79-41.676-0.096
			c-13.951,0.697-26.48,3.962-39.652,8.462c-7.903,2.7-15.802,5.411-23.695,8.141c-14.904,5.154-29.826,10.289-44.597,15.819
			c-20.591,7.708-40.061,19.428-58.764,30.839c-7.67,4.679-15.175,9.626-22.521,14.798c-6.514,4.587-14.507,8.979-18.146,16.387
			c-2.22,4.521-3.16,9.602-3.16,14.615c0,14.498,8.105,26.251,18.104,26.251H374.25v-13.749c22.7,2.954,55.956-47.819,56.281-55.423
			C430.532,284.503,555.261,218.461,555.261,218.461z"/>
		<path fill="#9B87E1" d="M339.327,336.483l-109.474-1.613c-2.236-0.033-4.023-1.873-3.99-4.109l0.005-0.37
			c0.033-2.236,1.873-4.023,4.109-3.99l109.474,1.613c2.236,0.033,4.023,1.873,3.99,4.109l-0.005,0.37
			C343.403,334.729,341.563,336.516,339.327,336.483z"/>
		<path opacity="0.5" fill="#775DD4" d="M338.557,334.838l-106.327-1.396c-1.534-0.02-2.761-1.28-2.741-2.814l0,0
			c0.02-1.534,1.28-2.761,2.814-2.741l106.327,1.396c1.534,0.02,2.761,1.28,2.741,2.814l0,0
			C341.35,333.631,340.09,334.859,338.557,334.838z"/>
		<path fill="#9B87E1" d="M569.594,233.203c-1.346-11.19-11.349-17.91-20.31-13.734c0,0-63.976,21.599-89.937,31.317
			c-24.36,9.119-76.893,40.465-91.399,53.112c-5.969,4.292-10.074,13.212-10.074,23.527c0,14.498,8.105,26.251,18.104,26.251
			c6.217,0,11.701-4.546,14.961-11.469c45.793-7.977,86.537-5.119,114.521-0.737c6.96,7.652,15.648,12.205,25.077,12.205
			c4.874,0,9.548-1.224,13.891-3.454c0.001,0,0.008,0.003,0.008,0.003s0.063-0.033,0.155-0.082
			c13.817-7.189,24.21-24.676,26.74-46.035c0.013-0.1,0.03-0.195,0.043-0.296C573.406,287.62,573.184,263.059,569.594,233.203z"/>
		<path fill="#F0FAFF" d="M445.526,247.722h-98.399c-0.662,0-0.804-0.932-0.172-1.13l65.332-20.42h99.144
			c0.532,0,0.646,0.749,0.138,0.907L445.526,247.722z"/>
		<g>
			<path fill="#A2DDCD" d="M280.492,299.955h-18.539c-1.228,0-1.662-1.627-0.597-2.239l9.567-5.495
				c0.182-0.104,0.388-0.159,0.597-0.159h18.539c1.228,0,1.662,1.627,0.597,2.239l-9.567,5.495
				C280.907,299.9,280.701,299.955,280.492,299.955z"/>
			<path fill="#F7D292" d="M309.562,300.621h-18.539c-1.228,0-1.662-1.627-0.597-2.239l9.567-5.495
				c0.182-0.104,0.388-0.159,0.597-0.159h18.539c1.228,0,1.662,1.627,0.597,2.239l-9.567,5.495
				C309.977,300.566,309.771,300.621,309.562,300.621z"/>
			<path fill="#EF8F8F" d="M338.296,299.955h-18.539c-1.228,0-1.662-1.627-0.597-2.239l9.567-5.495
				c0.182-0.104,0.388-0.159,0.597-0.159h18.539c1.228,0,1.662,1.627,0.597,2.239l-9.567,5.495
				C338.711,299.9,338.505,299.955,338.296,299.955z"/>
			<path fill="#CCDFFF" d="M299.569,288.997h-18.539c-1.228,0-1.662-1.627-0.597-2.239l9.567-5.495
				c0.182-0.104,0.388-0.159,0.597-0.159h18.539c1.228,0,1.662,1.627,0.597,2.239l-9.567,5.495
				C299.985,288.942,299.779,288.997,299.569,288.997z"/>
			<path fill="#CCDFFF" d="M328.639,288.997h-18.538c-1.228,0-1.662-1.627-0.597-2.239l9.567-5.495
				c0.182-0.104,0.388-0.159,0.597-0.159h18.539c1.228,0,1.662,1.627,0.597,2.239l-9.567,5.495
				C329.055,288.942,328.849,288.997,328.639,288.997z"/>
			<path fill="#CCDFFF" d="M357.373,288.997h-18.539c-1.228,0-1.662-1.627-0.597-2.239l9.567-5.495
				c0.182-0.104,0.388-0.159,0.597-0.159h18.538c1.228,0,1.662,1.627,0.597,2.239l-9.567,5.495
				C357.789,288.942,357.583,288.997,357.373,288.997z"/>
			<path fill="#CCDFFF" d="M317.192,278.875h-18.539c-1.228,0-1.662-1.627-0.597-2.239l9.567-5.495
				c0.182-0.104,0.388-0.159,0.597-0.159h18.538c1.228,0,1.662,1.627,0.597,2.239l-9.567,5.495
				C317.608,278.82,317.402,278.875,317.192,278.875z"/>
			<path fill="#CCDFFF" d="M346.329,278.942h-18.539c-1.228,0-1.662-1.627-0.597-2.239l9.567-5.495
				c0.182-0.104,0.388-0.159,0.597-0.159h18.539c1.228,0,1.662,1.627,0.597,2.239l-9.567,5.495
				C346.745,278.888,346.539,278.942,346.329,278.942z"/>
			<path fill="#CCDFFF" d="M375.064,278.942h-18.538c-1.228,0-1.662-1.627-0.597-2.239l9.567-5.495
				c0.182-0.104,0.388-0.159,0.597-0.159h18.539c1.228,0,1.662,1.627,0.597,2.239l-9.567,5.495
				C375.479,278.888,375.273,278.942,375.064,278.942z"/>
			<path fill="#CCDFFF" d="M336.337,267.985h-18.539c-1.228,0-1.662-1.627-0.597-2.239l9.567-5.495
				c0.182-0.104,0.388-0.159,0.597-0.159h18.539c1.228,0,1.662,1.627,0.597,2.239l-9.567,5.495
				C336.753,267.93,336.547,267.985,336.337,267.985z"/>
			<path fill="#CCDFFF" d="M365.407,267.985h-18.539c-1.228,0-1.662-1.627-0.597-2.239l9.567-5.495
				c0.182-0.104,0.388-0.159,0.597-0.159h18.539c1.228,0,1.662,1.627,0.597,2.239l-9.567,5.495
				C365.823,267.93,365.617,267.985,365.407,267.985z"/>
			<path fill="#CCDFFF" d="M394.141,267.985h-18.539c-1.228,0-1.662-1.627-0.597-2.239l9.567-5.495
				c0.182-0.104,0.388-0.159,0.597-0.159h18.539c1.228,0,1.662,1.627,0.597,2.239l-9.567,5.495
				C394.557,267.93,394.351,267.985,394.141,267.985z"/>
		</g>
	</g>
</g>
<g>
	<g>
		<g>
			<path fill-rule="evenodd" clip-rule="evenodd" fill="#FF8978" d="M393.179,295.871c-1.408-1.275-2.004-2.635-1.912-4.325
				l-8.895,0.115l0.384,10.016C388.75,310.863,400.851,303.406,393.179,295.871z"/>
			<path fill-rule="evenodd" clip-rule="evenodd" fill="#1C236C" d="M395.066,314.035c-1.2,5.095-4.322,9.725-8.912,11.512
				c-2.623,1.021-5.952,1.493-7.635,0.225c-0.356-0.268-0.298-0.32-0.29-0.433c2.561-5.335,3.632-10.567,3.722-16.422
				c0.022-1.418,0.557-3.784,0.582-5.943c0.007-0.592,0.213-1.225,0.204-1.813c6.48,2.606,8.695-3.957,8.949-7.242
				c0.243,0.303,0.573,0.868,0.982,1.027c0.861,0.335,1.627,0.763,2.278,1.261c1.439,0.659,3.344,2.698,3.687,3.82
				c0.31,0.414,0.332,1.536,0.229,2.063"/>
		</g>
		<g>
			<path fill-rule="evenodd" clip-rule="evenodd" fill="#0D2F6B" d="M447.658,129.164c-10.65,1.807-14.111,6.76-14.761,18.716
				c-0.166,3.048-5.459,12.088-2.521,19.977c3.287,8.828,8.728,6.847,10.625,13.68c2.603,9.373-1.059,12.928,1.342,18.463
				c1.053,2.427,2.687,2.844,6.161,7.533c0.228,0.308,0.426,0.606,0.626,0.896c2.546-0.165,5.216-0.262,8.727,0.717
				c4.968,1.386,13.211,3.623,19.229,1.245c5.409-2.138,5.389-7.93,7.643-10.188c2.836-2.84,5.45-2.886,7.641-3.815
				c6.457-2.739,9.169-11.753,5.571-18.039c-4.275-1.224-8.557-2.766-7.901-5.633c1.322-5.775,2.514-12.033-3.348-15.996
				c-4.08-2.758-10.376-2.842-12.277-7.978c-1.983-5.359-3.444-9.16-6.453-12.819C463.744,130.794,457.275,127.532,447.658,129.164z
				"/>
			<path fill-rule="evenodd" clip-rule="evenodd" fill="#0D2E5E" d="M440.325,135.592c-3.099,1.006-4.921,4.546-5.844,8.365
				c-2.117,8.759-8.182,12.951-4.105,23.899c3.287,8.828,8.728,6.847,10.625,13.68c2.2,7.921-0.075,11.687,0.617,16.005
				c5.43,2.051,3.962,10.909,16.573,8.729c5.47-0.945,3.465-6.881,11.077-6.604c5.002,0.182,6.588-2.293,6.899-5.117
				c1.051-9.56-4.974-5.881-4.845-12.656c0.132-6.861-6.004-7.137-6.133-8.719c-0.108-1.328,0.985-5.098-7.09-6.743
				c-3.712-0.756-6.69-2.756-5.675-5.416c1.422-3.724-1.212-6.437-1.652-6.721c-1.788-1.156-3.355,0.066-4.194-0.944
				c-0.002-0.002-3.832-8.327-4.332-9.606C441.009,140.585,439.865,138.242,440.325,135.592z"/>
		</g>
		<path fill-rule="evenodd" clip-rule="evenodd" fill="#A0BEFA" d="M391.591,291.464c-1.412-10.758,7.269-26.476,4.263-37.509
			c-0.773-2.839-2.779-5.683-4.605-9.458c4.784-0.998,10.84-0.323,17.397,2.035l10.999-1.354l9.527-8.848l-2.803-12.698
			l-7.457-0.616c-13.278,0.724-22.367,1.511-36.058,5.955c-2.496,0.931-5.35,2.445-6.678,3.802c-0.93,0.821-1.598,1.818-2.001,3.062
			c-1.361,4.203,0.441,9.262,2.175,15.061c4.121,13.782,5.41,26.935,5.94,40.767l0.173,7.683
			C382.548,301.552,391.041,297.772,391.591,291.464z"/>
		<path opacity="0.1" fill-rule="evenodd" clip-rule="evenodd" fill="#1E2353" d="M391.591,291.464
			c-1.412-10.758,7.27-26.477,4.263-37.509c-0.773-2.839-2.779-5.683-4.605-9.458c4.784-0.997,10.84-0.323,17.397,2.035
			l10.999-1.354l9.528-8.848l-2.803-12.699l-7.457-0.616l-1.203,0.067c-0.529,3.351-0.641,7.431-0.692,11.929
			c-8.269,0.745-28.1,2.283-30.809,5.409c-0.615,1.444,1.232,3.938,1.564,8.997c-3.442,1.928-6.579,4.155-9.722,7.765
			c2.798,11.537,3.792,22.765,4.241,34.48l0.172,7.683C382.549,301.552,391.041,297.772,391.591,291.464z"/>
		<path fill-rule="evenodd" clip-rule="evenodd" fill="#6A36CE" d="M419.405,221.168c0.195-1.142,0.453-2.182,0.708-3.287
			c0.18-0.78-0.174-2.104-0.18-3.022c-0.034-5.679,1.034-5.633,0.466-10.969c-0.257-2.413,0.063-4.715,0.4-6.681
			c-9.439-11.102,1.173-16.657,2.97-21.311c1.115-2.887,2.317-9.516,5.413-11.89c2.007-1.539,7.278-2.256,11.344,2.32
			c1.497,0.805,3.07-0.135,4.146,0.338c3.857,1.698,5.833,3.748,7.829,5.193c4.343,3.144,8.697,2.858,11.405,7.498
			c3.528,6.045-4.628,12.305-8.443,20.57c-2.021,4.379-5.654,11.6-8.082,21.528c-0.017,0.922,0.319,1.722,0.714,2.811
			C449.214,230.159,421.49,232.238,419.405,221.168z"/>
		<path opacity="0.5" fill-rule="evenodd" clip-rule="evenodd" fill="#6A36CE" d="M419.405,221.168
			c0.062-0.36,0.13-0.711,0.202-1.056c4.008,6.337,16.226,6.734,21.151,3.73c-0.711-3.698-0.787-6.072-0.218-9.821
			c-8.251-3.084-12.837-6.238-20.162-10.358c-0.214-2.33,0.097-4.55,0.423-6.454c-3.05-3.586-4.005-6.593-3.842-9.179
			c7.495,1.711,13.893,4.05,21.235,6.348c12.186-15.649,15.888-18.97,22.437-17.345c4.996,1.239,2.838,10.24,1.119,12.853
			c-2.008,3.054-4.582,6.348-6.287,10.042c-2.021,4.379-5.655,11.6-8.082,21.528c-0.016,0.922,0.319,1.722,0.714,2.811
			C449.213,230.159,421.49,232.238,419.405,221.168z"/>
		<g>
			<path fill-rule="evenodd" clip-rule="evenodd" fill="#FFA698" d="M355.864,324.928c1.833,9.957,14.856,0.39,13.562-3.21
				c-0.538-1.497-0.408-3.016,0.157-4.726l-8.061-3.762c-1.319,2.893-2.826,5.45-4.206,8.284
				C356.794,322.586,356.368,323.781,355.864,324.928z"/>
			<path fill-rule="evenodd" clip-rule="evenodd" fill="#273087" d="M363.201,338.65c-2.519,3.127-5.941,5.519-9.615,6.295
				c-3.272,0.691-11.095-0.302-10.451-3.375c2.081-1.673,3.832-3.449,5.677-5.697c2.232-2.718,3.426-4.802,4.773-7.506
				c0.633-1.269,1.871-3.342,2.825-5.277c0.262-0.532,0.505-1.076,0.751-1.61c3.976,6.091,10.648,2.166,11.943-2.249
				c0.088,0.377-0.117,0.848,0.183,1.169c0.631,0.674,1.138,1.39,1.51,2.122c1.012,1.216,1.849,3.877,1.673,5.038
				c0.101,0.508-0.365,1.529-0.685,1.959"/>
			<path fill-rule="evenodd" clip-rule="evenodd" fill="#A0BEFA" d="M421.122,263.864c-9.243,1.531-16.719,2.866-24.61,4.701
				c-2.299,0.535-3.604,1.457-4.376,2.781c-1.623,2.783-0.89,7.338-2.086,13.783c-2.087,11.243-13.648,22.595-20.462,32.594
				c-3.023,3.091-10.503,2.832-10.805-1.066c5.74-12.597,12.754-28.556,15.031-42.759c1.489-9.291,4.337-15.469,11.695-19.251
				c12.783-7.974,22.262-13.622,35.345-19.405c-1.298-3.115-1.965-7.748-2.094-9.821c-0.155-2.484,0.493-2.513,0.766-4.119
				c4.734,6.954,19.512,7.096,28.394,3.08c1.976,3.209,4.762,6.515,5.599,10.244c1.935,8.617-0.96,15.498-6.416,19.991
				C441.053,259.599,428.701,262.608,421.122,263.864z"/>
		</g>
		<g>
			<path fill-rule="evenodd" clip-rule="evenodd" fill="#FFB3B3" d="M407.689,181.212c1.745,0.701,1.848,1.349,3.635,4.657
				c1.205,2.229,2.647,2.946,4.549,4.005l-3.629,3.37c-1.488-1.276-2.263-0.851-4.248-2.208c-0.941-0.643-3.263-1.958-4.161-4.374
				c-0.921-2.476-3.731-3.546-5.632-5.271c-0.954-0.866,0.715-3.61,0.615-3.74C400.2,177.746,405.743,180.354,407.689,181.212z"/>
			<path fill-rule="evenodd" clip-rule="evenodd" fill="#7E41DF" d="M412.784,187.634c0.417,0.405,1.046,0.847,1.722,0.957
				c0.496,0.057,1.383-0.14,2.062,0.305c3.641,1.823,6.406,2.362,9.736,3.452c3.971,1.299,8.755,3.084,12.233,5.069
				c3.437-6.638,10.407-14.237,15.763-19.611c4.289-3.788,8.329-1.291,9.873,0.821c2.84,3.882,1.566,8.499-1.117,11.734
				c-4.559,5.495-12.62,11.327-17.889,16.523c-0.773,0.763-1.533,1.366-2.26,1.805c-1.008,0.826-2.427,1.151-3.961,0.717
				c-0.868-0.108-2.168-0.456-3.218-0.819c-4.057-1.324-9.523-4.063-13.284-6.425c-3.175-1.993-7.188-3.941-10.4-7.101
				c-0.304-0.298-0.559-1.122-0.888-1.392c-0.431-0.352-0.81-0.587-1.171-0.766C408.73,191.846,411.382,187.674,412.784,187.634z"/>
		</g>
		<g>
			<path fill-rule="evenodd" clip-rule="evenodd" fill="#FFB3B3" d="M449.86,159.085c-1.731,4.093-2.265,8.223-1.896,12.667
				c-4.236,2.429-10.13-0.373-10.899-3.635c0.741-1.825,1.496-3.484,2.149-5.382L449.86,159.085z"/>
			<path fill-rule="evenodd" clip-rule="evenodd" fill="#F4A2A2" d="M449.86,159.085c-0.831,1.964-1.386,3.938-1.698,5.95
				c-1.977,3.905-10.366,4.918-10.415,1.44c0.513-1.221,1.015-2.423,1.467-3.739L449.86,159.085z"/>
			<path fill-rule="evenodd" clip-rule="evenodd" fill="#FFB3B3" d="M439.588,137.718c-2.377,2.366-3.944,4.927-4.446,8.953
				c-0.127,1.023-0.417,1.616-0.846,2.189c-2.474,3.3-2.59,4.474-2.461,7.604c0.126,3.044-0.272,4.529,0.479,5.737
				c0.771,1.24,2.217,1.818,3.47,2.191c2.569,0.764,7.439,0.074,10.367-0.749c2.171-0.611,2.263-1.349,3.498-2.989
				c3.267-1.741,1.901-3.875,1.03-4.262c-2.499-1.11-3.615,1.806-5.318,2.116C446.836,153.272,438.803,142.013,439.588,137.718z"/>
			<path fill-rule="evenodd" clip-rule="evenodd" fill="#FFB3B3" d="M437.943,139.572c-1.457,1.902-2.427,4.092-2.801,7.099
				c-0.127,1.023-0.417,1.616-0.846,2.189c-2.474,3.3-2.59,4.474-2.461,7.604c0.056,1.365,0.007,2.417,0.004,3.27
				c0.407,1.075,1.541,1.831,2.84,1.58c1.199-0.232,2.565-1.275,3.328-3.357c0.542-1.48,3.895-1.766,4.896-3.166
				c0.83-1.161-0.282-2.926-0.985-3.867C439.455,147.63,438.358,143.677,437.943,139.572z"/>
			<path fill-rule="evenodd" clip-rule="evenodd" fill="#FF8F7F" d="M439.588,137.718c-0.032,6.838,7.326,13.712,5.772,20.789
				C444.727,150.635,437.647,143.717,439.588,137.718z"/>
		</g>
	</g>
</g>
<linearGradient id="SVGID_1_" gradientUnits="userSpaceOnUse" x1="356.4113" y1="249.3242" x2="356.4113" y2="249.3242" gradientTransform="matrix(0.9507 0.31 -0.31 0.9507 124.715 -189.3124)">
	<stop  offset="0" style="stop-color:#FF8A78"/>
	<stop  offset="1" style="stop-color:#FFA799"/>
</linearGradient>
<path fill-rule="evenodd" clip-rule="evenodd" fill="url(#SVGID_1_)" d="M386.274,158.219"/>
<path fill-rule="evenodd" clip-rule="evenodd" fill="#FFB3B3" d="M371.389,117.936c-2.5,2.137-5.625,2.25-5.999-0.307"/>
</svg>
